<?xml version="1.0" standalone="no"?>
<!DOCTYPE svg PUBLIC "-//W3C//DTD SVG 20010904//EN"
 "http://www.w3.org/TR/2001/REC-SVG-20010904/DTD/svg10.dtd">
<svg version="1.0" xmlns="http://www.w3.org/2000/svg"
 width="600.000000pt" height="600.000000pt" viewBox="0 0 600.000000 600.000000"
 preserveAspectRatio="xMidYMid meet">
<metadata>
Created by potrace 1.11, written by Peter Selinger 2001-2013
</metadata>
<g transform="translate(0.000000,600.000000) scale(0.100000,-0.100000)"
fill="#000000" stroke="none">
<path d="M4655 5985 c-12 -8 -41 -16 -65 -19 -32 -3 -46 -8 -48 -21 -3 -14 0
-15 17 -6 27 15 35 -2 12 -23 -12 -11 -21 -14 -25 -7 -8 13 -120 8 -138 -6
-32 -24 -81 -2 -62 28 9 15 -19 10 -48 -9 -25 -17 -27 -20 -13 -38 21 -28 18
-43 -11 -66 l-25 -20 21 -15 c12 -8 19 -20 17 -27 -18 -48 -18 -54 7 -60 14
-3 42 -18 62 -31 l37 -25 19 20 c24 26 74 27 87 1 8 -14 6 -23 -9 -36 -11 -10
-17 -21 -15 -25 3 -5 -3 -6 -14 -3 -15 4 -18 0 -14 -22 4 -17 11 -25 22 -23 9
1 22 -1 29 -5 16 -11 15 -37 -2 -37 -7 0 -16 -13 -19 -29 -4 -19 -14 -32 -29
-37 -19 -6 -15 -9 27 -19 27 -7 51 -18 53 -24 2 -6 10 -11 17 -11 16 0 30 -33
16 -38 -6 -2 -11 -8 -11 -14 0 -5 6 -8 12 -6 16 6 35 -13 48 -48 9 -22 7 -30
-9 -45 -11 -11 -25 -19 -31 -19 -5 0 -10 -7 -10 -15 0 -20 6 -19 28 5 l19 21
6 -29 c5 -23 13 -31 38 -36 17 -3 35 -3 40 0 5 3 9 0 9 -7 0 -8 4 -8 13 -1 20
17 54 -17 60 -63 5 -27 3 -35 -3 -25 -8 13 -10 13 -10 -2 0 -9 11 -30 25 -46
29 -34 32 -67 9 -80 -20 -11 -94 1 -104 17 -5 9 -13 9 -32 0 -21 -9 -32 -8
-57 4 -17 8 -33 11 -36 7 -3 -5 -22 2 -42 15 -43 30 -59 31 -73 6 -10 -20 -45
-37 -67 -33 -8 2 -10 -8 -6 -33 4 -23 0 -43 -11 -60 -9 -14 -12 -25 -6 -25 15
0 12 -20 -4 -26 -8 -3 -31 6 -53 19 -31 20 -40 33 -50 74 -6 27 -18 66 -27 86
-8 21 -16 41 -16 45 -1 4 -7 13 -13 20 -8 10 -8 15 1 21 7 4 8 12 2 21 -6 10
-27 15 -64 15 -43 0 -60 5 -78 23 -14 12 -37 22 -51 22 -15 0 -30 7 -33 15
-10 24 -31 17 -37 -12 -7 -35 -3 -40 33 -48 17 -4 30 -12 30 -18 0 -6 7 -19
17 -29 14 -16 15 -18 0 -18 -9 0 -18 4 -21 9 -11 18 -54 18 -77 0 -26 -20 -64
-25 -74 -9 -4 6 -13 7 -22 2 -10 -6 -24 0 -46 20 -18 17 -40 37 -50 46 -10 10
-28 17 -40 18 -12 1 -34 4 -49 9 -38 10 -37 -10 1 -29 30 -16 47 -54 31 -70
-6 -6 -10 -20 -10 -32 0 -12 -6 -34 -14 -48 -13 -26 -12 -29 18 -59 17 -18 31
-39 31 -47 0 -11 15 -16 56 -20 31 -3 63 -11 71 -18 8 -6 34 -13 58 -14 26 -1
54 -10 74 -25 17 -12 46 -30 63 -38 18 -8 39 -27 47 -43 13 -25 12 -29 -15
-62 -16 -19 -29 -39 -29 -46 0 -19 -52 -35 -85 -26 -23 6 -36 22 -63 73 -40
78 -46 84 -69 74 -10 -5 -26 -7 -35 -6 -10 1 -18 -4 -18 -11 0 -22 -38 -16
-51 9 -7 12 -27 27 -46 34 -25 8 -33 16 -33 33 0 16 -13 32 -38 50 -21 14 -40
26 -43 26 -2 0 -4 -16 -5 -36 -1 -32 6 -41 67 -91 l68 -56 -6 -66 c-5 -64 -4
-67 28 -104 18 -20 37 -37 43 -37 5 0 26 -8 47 -17 37 -18 56 -47 37 -59 -5
-4 -8 -17 -5 -30 2 -14 -2 -29 -10 -36 -9 -7 -12 -21 -8 -36 5 -22 4 -24 -20
-18 -14 4 -25 2 -25 -3 0 -5 -20 -17 -45 -27 -26 -10 -45 -23 -45 -32 0 -9 20
-35 45 -59 47 -45 88 -56 113 -31 10 10 17 10 32 0 21 -13 74 -6 65 9 -3 4
-13 5 -23 2 -9 -3 -14 -3 -10 2 12 13 -12 35 -38 35 -12 0 -25 3 -27 8 -9 14
12 52 28 52 10 0 13 5 9 11 -5 9 4 10 32 4 65 -13 88 -12 104 6 22 25 79 33
87 12 11 -28 -11 -48 -47 -45 -32 4 -32 3 -24 -25 4 -15 8 -45 9 -66 0 -31 6
-41 32 -57 33 -20 53 -48 53 -75 0 -29 -55 -75 -89 -75 -24 0 -31 -4 -31 -19
0 -11 5 -23 11 -26 18 -12 31 -58 30 -103 -1 -30 5 -52 19 -69 26 -33 25 -68
-2 -87 -16 -11 -26 -12 -41 -5 -31 17 -65 -7 -73 -50 -4 -20 -16 -54 -28 -76
l-21 -40 -6 45 c-3 25 -7 37 -7 28 -5 -47 -22 -64 -69 -66 -26 -1 -49 -6 -53
-12 -6 -10 -80 8 -80 21 0 4 -16 -1 -36 -11 -19 -10 -45 -17 -57 -14 -11 2
-24 -2 -28 -8 -6 -9 -11 -9 -21 0 -10 8 -18 8 -25 1 -7 -7 -23 -7 -53 1 -30 8
-46 8 -53 1 -6 -6 -21 -11 -33 -11 -27 0 -39 44 -18 65 19 19 17 27 -5 20 -12
-3 -21 0 -25 10 -3 9 -11 13 -16 10 -18 -11 -61 41 -62 74 -1 17 -5 31 -10 31
-4 0 -8 7 -8 15 0 16 -16 48 -36 75 -7 8 -14 24 -16 35 -5 28 -48 -145 -48
-194 0 -74 -22 -195 -32 -177 -5 9 -7 20 -3 25 6 11 -14 109 -24 115 -4 3 -36
1 -70 -4 -39 -5 -73 -5 -88 1 -19 7 -35 4 -69 -12 -32 -17 -46 -19 -57 -11
-10 8 -21 6 -47 -10 -30 -18 -44 -20 -104 -14 -59 5 -70 4 -82 -11 -19 -25
-17 -30 9 -37 13 -3 49 -32 80 -65 l56 -59 61 64 c68 73 100 82 140 39 23 -25
107 -55 153 -55 45 0 57 -10 57 -49 0 -31 5 -38 31 -50 35 -15 45 -10 31 16
-14 25 10 81 40 92 43 16 173 -31 204 -74 l20 -27 28 26 c28 25 54 24 71 -4 3
-6 19 -10 35 -10 65 0 108 -40 52 -48 -32 -5 -27 -15 18 -35 39 -18 53 -48 30
-62 -7 -4 -7 -13 0 -25 8 -15 5 -23 -12 -40 -27 -25 -36 -25 -68 0 -35 28 -50
25 -50 -9 0 -25 -5 -30 -34 -35 -19 -4 -47 -4 -62 0 -19 5 -25 4 -20 -5 14
-21 -4 -47 -44 -65 -46 -20 -72 -10 -63 25 5 19 3 18 -20 -5 l-26 -26 -32 19
c-18 11 -37 17 -43 13 -6 -3 -25 -7 -41 -9 -23 -1 -33 4 -40 20 -23 50 -31 25
-43 -130 -7 -87 -15 -219 -19 -294 -8 -172 -25 -157 235 -208 43 -9 56 -8 68
3 8 8 12 21 9 28 -3 8 3 23 15 33 11 10 20 14 20 9 0 -5 5 -2 10 6 10 15 14
60 5 60 -14 0 -54 -24 -50 -31 3 -4 0 -11 -6 -15 -6 -3 -15 -1 -19 6 -5 9 -17
9 -46 1 -52 -15 -54 -14 -54 10 0 57 63 88 135 67 22 -6 45 -12 50 -12 6 -1 9
-19 7 -41 l-2 -40 13 30 c12 26 11 33 -7 60 -28 42 -80 59 -113 38 -22 -14
-27 -14 -58 3 -35 19 -48 55 -25 69 6 4 8 16 5 26 -8 25 8 45 51 65 38 18 40
22 20 49 -13 18 -16 18 -41 5 -30 -16 -47 -49 -34 -66 6 -7 -5 -11 -36 -12
-42 0 -45 1 -45 26 1 57 63 102 142 102 l58 0 -17 35 c-21 43 -13 52 28 31 41
-21 41 -21 33 10 -6 25 -5 26 19 20 14 -3 28 -2 31 3 3 5 44 6 91 3 l85 -5 0
36 0 36 -30 -17 c-21 -12 -32 -14 -40 -6 -15 15 49 57 65 44 7 -6 16 -5 22 1
7 7 21 8 34 3 13 -4 33 -8 44 -9 11 -2 35 -6 53 -10 26 -6 32 -5 32 9 0 21 26
32 43 18 16 -13 125 -35 142 -28 8 3 16 0 19 -7 5 -9 7 -9 12 1 9 19 32 14 39
-9 4 -11 7 -40 7 -65 0 -35 3 -44 14 -40 7 3 37 -2 66 -11 59 -18 108 -21 128
-8 9 5 15 4 18 -3 2 -7 12 -12 23 -12 25 0 24 -17 -2 -25 -12 -4 -18 -12 -15
-21 3 -7 1 -16 -4 -19 -4 -3 -10 0 -12 6 -2 6 -22 12 -45 13 -46 2 -46 7 -4
-84 27 -59 26 -86 -4 -114 l-26 -24 30 -30 c29 -29 31 -29 47 -11 20 23 44 25
44 4 0 -18 36 -39 45 -25 3 5 12 7 20 3 9 -3 15 1 15 11 0 9 5 16 11 16 6 0 9
7 5 15 -8 22 2 18 27 -11 20 -22 25 -24 51 -14 16 6 31 8 34 5 3 -3 -1 -5 -9
-5 -12 0 -12 -2 0 -9 11 -7 7 -12 -19 -18 -20 -5 -36 -17 -41 -30 -6 -18 -5
-21 8 -16 13 5 14 -2 8 -58 -4 -35 -13 -76 -20 -90 -11 -24 -10 -26 7 -21 12
3 18 0 16 -9 -2 -7 12 -21 29 -30 18 -9 40 -22 48 -29 21 -18 48 -5 37 17 -23
44 -24 99 -2 136 12 20 30 39 41 42 10 4 19 11 19 16 0 6 12 9 28 8 15 -2 33
0 40 4 7 5 12 3 12 -6 0 -8 11 -18 25 -21 29 -8 31 -27 11 -106 -8 -29 -12
-59 -9 -66 2 -6 0 -15 -6 -19 -6 -3 -11 -17 -11 -31 0 -21 -5 -24 -35 -24 -24
0 -33 4 -29 13 3 10 -6 14 -34 15 -32 1 -41 -2 -45 -18 -5 -19 -7 -19 -40 -5
-42 17 -59 5 -55 -41 2 -16 -1 -30 -7 -31 -5 -1 -12 -17 -15 -35 -4 -27 -9
-32 -27 -30 -14 2 -23 -4 -28 -18 -8 -24 -24 -26 -51 -5 -25 19 -44 19 -44 0
0 -8 -5 -15 -11 -15 -5 0 -7 5 -4 10 10 16 -31 11 -45 -6 -8 -8 -30 -22 -49
-30 -20 -8 -52 -26 -71 -39 -19 -13 -53 -26 -75 -29 -52 -8 -78 12 -78 56 0
18 -4 37 -9 43 -4 5 -19 24 -33 42 -25 31 -25 32 -5 38 11 3 20 13 20 21 0 13
-22 19 -62 16 -9 -1 -19 5 -22 14 -4 12 -1 14 14 9 11 -4 20 -2 20 4 0 6 9 11
19 11 19 0 61 43 61 61 0 5 -7 9 -15 9 -8 0 -15 -6 -15 -14 0 -20 -12 -26 -38
-19 -26 6 -19 23 9 23 12 0 19 7 19 19 0 26 -15 34 -40 21 -12 -7 -26 -7 -36
-2 -15 8 -15 10 0 15 22 9 20 24 -5 30 -14 4 -23 -1 -29 -16 -14 -36 -69 -87
-94 -87 -12 0 -27 -5 -32 -10 -8 -8 -15 -6 -24 5 -20 25 -59 19 -70 -11 -6
-14 -8 -30 -4 -35 3 -5 -2 -9 -11 -9 -9 0 -14 4 -11 9 3 5 -4 11 -17 15 -12 3
-23 1 -25 -4 -5 -14 -20 -13 -36 2 -18 17 13 51 40 43 17 -6 18 -6 2 5 -31 19
-19 32 12 13 22 -13 33 -14 41 -6 9 9 7 11 -10 6 -15 -4 -21 -1 -21 11 0 9 -8
16 -17 16 -34 0 -63 -12 -63 -26 0 -8 -9 -14 -20 -14 -25 0 -25 -10 -2 -49 11
-19 28 -33 47 -37 37 -8 125 -55 125 -66 0 -5 -7 -11 -15 -14 -8 -3 -17 -14
-20 -24 -3 -10 -23 -30 -45 -44 -27 -18 -40 -34 -40 -49 0 -27 -17 -47 -41
-47 -10 0 -37 -23 -60 -50 -26 -31 -50 -50 -63 -50 -32 0 -150 -40 -177 -61
-31 -23 -21 -32 20 -18 25 9 59 9 139 0 90 -11 108 -10 117 2 14 20 50 37 76
37 31 0 116 -91 157 -168 23 -42 32 -73 32 -106 0 -25 8 -61 17 -80 13 -29 14
-40 5 -61 -11 -25 -36 -33 -46 -16 -3 5 -14 7 -24 4 -13 -3 -26 7 -43 31 -13
20 -26 36 -29 36 -4 0 -12 -16 -19 -35 -24 -67 -92 -154 -167 -215 -82 -66
-106 -76 -160 -66 -35 7 -40 11 -104 83 -19 22 -48 43 -65 47 -32 8 -75 42
-75 60 0 6 -8 20 -16 31 -16 19 -16 19 -10 -10 3 -16 12 -64 21 -105 21 -108
34 -282 26 -375 -4 -50 -1 -106 7 -150 10 -53 12 -139 7 -358 l-7 -287 435 0
435 0 5 42 c4 24 9 90 13 148 8 125 8 122 17 137 5 8 4 13 -2 13 -6 0 -11 13
-11 29 l0 29 38 -13 c20 -7 51 -12 69 -10 22 1 30 -2 26 -12 -3 -7 0 -13 7
-13 6 0 9 -4 5 -9 -8 -14 35 -41 67 -41 14 0 38 -4 52 -10 14 -5 43 -10 66
-12 22 -1 40 -5 40 -8 0 -3 15 -13 33 -23 30 -16 35 -17 62 -3 37 20 64 20 89
1 22 -17 86 -20 86 -5 0 6 9 10 20 10 11 0 20 5 20 10 0 6 9 10 20 10 16 0 20
-7 20 -31 0 -26 6 -33 40 -47 41 -17 47 -34 15 -40 -12 -3 -15 0 -9 10 6 10 5
10 -9 -1 -25 -20 -21 -26 22 -27 64 -3 145 -32 192 -69 24 -19 49 -35 55 -35
6 0 17 -7 24 -15 13 -16 120 -22 120 -7 0 4 17 5 38 3 20 -2 85 -5 145 -6
l107 -2 0 759 c0 433 -4 758 -9 758 -5 0 -24 -6 -42 -14 -29 -12 -36 -12 -58
3 -23 15 -25 15 -18 -2 3 -9 2 -17 -3 -17 -6 0 -10 5 -10 10 0 15 -31 12 -64
-5 -32 -17 -102 -20 -111 -6 -3 6 -17 6 -35 -1 -22 -7 -34 -7 -44 1 -7 6 -16
8 -19 5 -7 -7 -86 -16 -129 -15 -16 0 -28 -3 -28 -7 0 -5 -16 -8 -36 -9 -19
-1 -33 1 -30 4 3 3 -6 14 -19 25 -14 11 -25 25 -25 33 0 16 -43 45 -69 45 -29
0 -36 -31 -10 -51 20 -15 20 -19 9 -53 -9 -28 -17 -36 -35 -36 -36 0 -56 11
-66 36 -10 29 -34 31 -48 5 -9 -15 -27 -19 -112 -24 -90 -5 -104 -8 -123 -29
-12 -12 -25 -31 -29 -41 -5 -13 -18 -17 -52 -17 -25 0 -45 -3 -45 -7 0 -16
-53 -33 -66 -22 -7 6 -23 8 -35 4 -14 -5 -25 -2 -30 6 -13 20 -12 23 16 53 13
14 22 33 19 40 -3 8 3 19 14 25 19 10 18 11 -2 94 -12 47 -28 92 -35 101 -12
15 -7 27 44 102 41 61 69 91 97 105 37 19 65 18 52 -2 -3 -5 7 -26 22 -46 l27
-36 19 23 c21 26 23 43 6 70 -11 17 -10 22 0 29 11 7 11 9 -2 14 -23 9 -20 50
5 65 17 11 28 10 67 -5 34 -13 47 -14 50 -5 2 7 8 12 13 12 6 0 8 -4 5 -9 -8
-12 16 -31 51 -40 27 -7 28 -8 28 -90 0 -84 7 -100 46 -101 23 0 37 -20 47
-66 6 -29 13 -40 30 -42 16 -2 22 2 23 15 0 10 2 31 3 46 1 17 -5 34 -15 40
-24 18 -45 102 -27 113 5 3 -5 18 -21 33 -23 21 -31 39 -36 82 -12 99 19 129
111 109 82 -19 113 -46 105 -92 -1 -11 7 -10 28 1 22 12 63 3 54 -12 -4 -6 3
-8 18 -4 78 20 79 20 79 4 0 -9 9 -31 20 -49 l19 -34 -49 3 c-38 1 -50 -2 -50
-13 0 -17 20 -19 20 -1 0 6 5 4 11 -5 11 -20 44 -24 54 -7 5 6 11 4 19 -6 7
-9 21 -15 32 -13 10 1 19 -3 19 -9 0 -16 -3 -16 -63 -7 -26 4 -52 14 -59 23
-8 10 -12 12 -13 4 0 -8 -13 -13 -29 -13 -17 0 -32 -4 -36 -9 -8 -14 22 -28
80 -36 28 -4 61 -12 75 -18 14 -5 50 -11 80 -13 135 -7 181 -16 208 -38 39
-31 86 -50 90 -37 2 6 8 9 13 5 5 -3 9 619 9 1565 0 1225 -3 1581 -12 1618
-10 37 -10 47 0 50 15 6 17 174 2 189 -8 8 -8 19 0 38 5 15 10 85 10 156 0
120 -2 130 -24 157 -35 42 -48 72 -41 93 8 24 14 25 43 4 l22 -15 0 130 c0
110 -2 131 -15 131 -18 0 -20 16 -2 24 6 3 0 3 -15 0 -21 -5 -28 -1 -33 16 -9
27 10 50 41 50 22 0 24 4 24 50 l0 50 -362 -1 c-298 0 -367 -3 -383 -14z
m-106 -145 c51 -25 70 -32 82 -28 8 3 20 -2 28 -9 12 -12 11 -16 -7 -29 -18
-12 -20 -18 -10 -39 17 -37 6 -52 -36 -47 -20 2 -39 8 -42 13 -7 12 -61 12
-69 0 -3 -6 -17 -6 -35 -1 -18 5 -30 5 -30 -1 0 -15 -28 -10 -38 7 -6 11 -17
15 -31 11 -12 -3 -21 0 -21 7 0 6 -9 17 -20 24 -14 8 -20 23 -20 47 0 19 3 35
8 36 12 1 54 8 107 18 51 9 105 6 134 -9z m641 -35 c0 -8 -8 -15 -17 -15 -28
1 -56 27 -49 45 5 14 8 14 36 0 16 -8 30 -22 30 -30z m-287 -184 c18 -18 19
-55 1 -68 -14 -10 -24 -9 -56 9 -39 22 -48 44 -26 66 14 14 65 9 81 -7z m-273
-32 c0 -5 5 -7 10 -4 15 9 40 -14 40 -36 0 -11 7 -19 15 -19 20 0 19 -19 -1
-27 -10 -4 -20 1 -26 11 -7 13 -13 14 -30 5 -14 -8 -23 -8 -31 0 -14 14 -27
14 -27 1 0 -6 12 -15 28 -21 25 -10 26 -11 9 -24 -23 -17 -45 -10 -74 24 -23
27 -31 71 -13 71 6 0 10 -12 10 -27 0 -23 2 -25 13 -11 6 9 19 18 27 21 12 4
11 6 -2 6 -28 1 -21 21 7 21 14 0 25 5 25 10 0 6 5 10 10 10 6 0 10 -5 10 -11z
m625 -29 c4 -6 1 -18 -6 -26 -10 -12 -14 -12 -20 -2 -5 7 -9 19 -9 26 0 15 26
16 35 2z m-589 -116 c-3 -9 -6 -20 -6 -25 0 -5 -14 -2 -31 7 -25 12 -29 18
-18 25 8 5 25 9 38 9 17 0 22 -4 17 -16z m-687 -471 c55 -17 69 -46 30 -58
-17 -6 -19 -9 -8 -16 8 -5 9 -9 4 -9 -6 0 -16 5 -22 11 -7 7 -19 8 -30 4 -50
-22 -64 -4 -54 73 1 16 19 15 80 -5z m515 -96 c-3 -8 -1 -18 4 -21 5 -3 7 -16
5 -30 -6 -29 -36 -29 -41 0 -2 10 -10 34 -18 52 -9 18 -12 42 -8 54 6 20 7 20
35 -10 16 -17 26 -37 23 -45z m204 41 c-6 -18 -48 -30 -48 -14 0 15 14 24 38
25 8 1 12 -4 10 -11z m272 -13 c8 -10 9 -19 3 -27 -5 -7 -8 -32 -7 -55 2 -51
-8 -54 -47 -12 -29 31 -38 59 -19 59 6 0 10 8 10 18 0 10 3 22 7 25 11 12 40
8 53 -8z m290 -17 c0 -6 -6 -5 -15 2 -8 7 -15 14 -15 16 0 2 7 1 15 -2 8 -4
15 -11 15 -16z m43 -38 c4 -16 1 -20 -11 -17 -9 2 -16 9 -14 15 1 7 -4 12 -10
12 -9 0 -8 3 2 9 18 12 26 7 33 -19z m-1048 -40 c26 -20 42 -27 52 -21 9 4 26
3 39 -3 22 -10 24 -17 22 -56 -3 -44 -4 -45 -40 -48 -30 -3 -42 2 -59 22 -13
14 -28 26 -36 26 -16 0 -43 52 -43 85 0 33 19 32 65 -5z m472 -52 c4 -7 9 -22
10 -33 3 -16 1 -17 -7 -5 -5 8 -10 11 -10 6 0 -14 -30 15 -30 30 0 17 26 18
37 2z m-1027 -108 c0 -5 -5 -10 -11 -10 -5 0 -7 5 -4 10 3 6 8 10 11 10 2 0 4
-4 4 -10z m1125 0 c11 -19 -5 -30 -25 -18 -14 9 -16 14 -7 20 16 10 25 10 32
-2z m-331 -16 c9 -3 16 -16 16 -28 0 -12 5 -27 10 -32 7 -7 7 -19 1 -35 -5
-13 -10 -18 -10 -11 -1 6 -20 31 -42 53 -32 32 -38 43 -28 50 17 10 32 11 53
3z m-292 -91 c25 -22 23 -61 -4 -84 -50 -41 -138 -8 -138 52 0 27 3 29 38 29
20 0 44 5 52 10 21 14 31 12 52 -7z m966 11 c27 -8 32 -48 5 -41 -10 2 -32 -5
-49 -15 -31 -18 -33 -18 -63 -1 -43 25 -41 46 4 41 19 -2 35 -1 35 3 0 6 14
12 40 18 3 0 15 -2 28 -5z m-294 -50 c3 -8 2 -12 -4 -9 -6 3 -10 10 -10 16 0
14 7 11 14 -7z m516 -5 c0 -12 -37 -12 -44 0 -7 11 14 20 32 13 6 -2 12 -8 12
-13z m-480 -59 c0 -22 -1 -23 -24 -14 -13 5 -14 9 -5 20 16 20 29 17 29 -6z
m-1060 -184 c0 -3 -4 -8 -10 -11 -5 -3 -10 -1 -10 4 0 6 5 11 10 11 6 0 10 -2
10 -4z m280 -356 c0 -5 -6 -10 -14 -10 -8 0 -18 5 -21 10 -3 6 3 10 14 10 12
0 21 -4 21 -10z m444 -265 c6 -25 -1 -55 -14 -55 -27 0 -40 15 -40 45 0 49 42
57 54 10z m-280 -74 c24 -27 17 -55 -15 -59 -22 -3 -29 2 -37 27 -9 26 -8 32
6 41 23 13 27 13 46 -9z m-284 -37 c0 -8 -4 -14 -9 -14 -11 0 -22 26 -14 34 9
9 23 -3 23 -20z m-12 -229 c-3 -3 -9 2 -12 12 -6 14 -5 15 5 6 7 -7 10 -15 7
-18z m37 -25 c3 -5 1 -10 -4 -10 -6 0 -11 5 -11 10 0 6 2 10 4 10 3 0 8 -4 11
-10z m1265 -715 c-12 -15 -30 -12 -30 5 0 5 7 7 15 4 8 -4 15 -1 15 7 0 7 3 9
6 6 4 -4 1 -13 -6 -22z m-1447 -357 c3 -22 0 -37 -9 -44 -12 -10 -12 -13 -2
-17 10 -3 10 -7 1 -17 -9 -10 -15 -9 -28 4 -10 9 -33 16 -56 16 -35 0 -39 -3
-39 -25 0 -21 3 -23 23 -16 30 12 80 2 73 -14 -2 -7 11 -26 30 -43 40 -36 49
-80 12 -61 -31 16 -179 119 -202 141 -17 15 -18 21 -6 42 12 23 40 26 40 5 0
-5 20 -9 43 -9 31 0 49 6 62 20 9 10 22 18 29 17 6 -1 10 6 8 16 -2 9 1 17 6
17 6 0 12 -15 15 -32z m1172 -318 c3 -5 2 -10 -4 -10 -5 0 -13 5 -16 10 -3 6
-2 10 4 10 5 0 13 -4 16 -10z m135 -70 c0 -5 -4 -10 -10 -10 -5 0 -10 5 -10
10 0 6 5 10 10 10 6 0 10 -4 10 -10z m96 -355 c16 -12 16 -14 3 -15 -9 0 -22
7 -29 15 -16 19 0 19 26 0z m47 -61 c12 -12 -17 -54 -37 -54 -24 0 -52 46 -32
54 17 7 62 7 69 0z m-40 -71 c-7 -2 -19 -2 -25 0 -7 3 -2 5 12 5 14 0 19 -2
13 -5z m-223 -13 c0 -5 -5 -10 -11 -10 -5 0 -7 5 -4 10 3 6 8 10 11 10 2 0 4
-4 4 -10z m-516 -79 c3 -4 3 -11 0 -14 -8 -8 -34 3 -34 14 0 11 27 12 34 0z
m-356 -567 c22 -15 22 -17 7 -40 -8 -13 -11 -24 -5 -24 5 0 10 -4 10 -10 0 -5
-8 -6 -17 -3 -12 5 -15 2 -10 -10 9 -23 -31 -32 -96 -21 -47 8 -52 12 -55 38
-7 57 3 71 50 70 24 0 52 3 63 7 28 11 28 11 53 -7z m169 -77 c4 -7 19 -18 33
-24 l25 -11 -30 0 c-16 0 -52 -4 -79 -8 -36 -5 -50 -3 -57 7 -13 20 -11 29 6
29 8 0 15 5 15 10 0 15 78 12 87 -3z m733 -355 c0 -25 -37 -47 -56 -31 -29 24
-14 47 34 48 15 1 22 -5 22 -17z m120 -36 c0 -3 -4 -8 -10 -11 -5 -3 -10 -1
-10 4 0 6 5 11 10 11 6 0 10 -2 10 -4z m68 -28 c10 -10 15 -10 23 2 9 13 10
12 5 -2 -4 -12 0 -18 11 -18 12 0 13 -3 3 -15 -10 -12 -17 -12 -34 -3 -11 6
-22 11 -23 10 -12 -8 -24 1 -19 14 3 8 2 13 -2 10 -4 -2 -14 -1 -22 5 -11 6
-7 9 16 9 16 0 36 -6 42 -12z m-128 -62 c0 -3 -4 -8 -10 -11 -5 -3 -10 -1 -10
4 0 6 5 11 10 11 6 0 10 -2 10 -4z"/>
<path d="M4510 5745 c-8 -9 -8 -15 -2 -15 12 0 26 19 19 26 -2 2 -10 -2 -17
-11z"/>
<path d="M3810 2170 c0 -5 5 -10 11 -10 5 0 7 5 4 10 -3 6 -8 10 -11 10 -2 0
-4 -4 -4 -10z"/>
<path d="M3270 5450 c0 -11 4 -20 9 -20 5 0 7 9 4 20 -3 11 -7 20 -9 20 -2 0
-4 -9 -4 -20z"/>
<path d="M3530 5267 c0 -33 9 -38 30 -19 14 12 17 19 8 29 -17 21 -38 15 -38
-10z"/>
<path d="M3971 5224 c0 -11 3 -14 6 -6 3 7 2 16 -1 19 -3 4 -6 -2 -5 -13z"/>
<path d="M3242 5210 c0 -14 2 -19 5 -12 2 6 2 18 0 25 -3 6 -5 1 -5 -13z"/>
<path d="M3995 5200 c-3 -5 -1 -10 4 -10 6 0 11 5 11 10 0 6 -2 10 -4 10 -3 0
-8 -4 -11 -10z"/>
<path d="M3227 5054 c-12 -16 -14 -29 -8 -50 4 -16 8 -44 7 -62 -1 -39 15 -37
26 3 4 15 12 31 18 35 6 4 13 22 16 41 5 29 2 36 -18 45 -20 9 -27 7 -41 -12z"/>
<path d="M2727 4894 c-9 -10 4 -34 19 -34 8 0 14 4 14 9 0 12 -26 32 -33 25z"/>
<path d="M3210 4886 c0 -9 5 -16 10 -16 6 0 10 4 10 9 0 6 -4 13 -10 16 -5 3
-10 -1 -10 -9z"/>
<path d="M2935 4841 c33 -17 66 -30 73 -31 10 0 19 -20 8 -20 -10 0 -156 38
-168 44 -7 4 -5 1 5 -6 54 -38 54 -37 13 -38 -22 0 -36 -3 -33 -7 4 -3 2 -11
-3 -18 -13 -16 133 -39 160 -25 24 13 53 13 45 0 -4 -7 5 -9 26 -5 42 8 32 -4
-13 -15 -18 -5 -53 -16 -78 -25 -32 -12 -73 -16 -145 -15 -122 2 -124 2 -103
-11 20 -11 119 -23 191 -24 26 0 47 -1 47 -3 0 -1 -12 -7 -27 -13 -48 -18
-253 21 -253 48 0 7 -6 13 -14 13 -7 0 -25 9 -39 20 -18 15 -27 17 -30 8 -8
-22 -21 1 -21 37 0 21 -5 35 -12 35 -19 0 -27 -39 -12 -57 11 -14 11 -16 -1
-8 -10 5 -12 4 -7 -3 4 -7 14 -12 22 -12 8 0 14 -5 14 -11 0 -5 16 -16 34 -24
19 -8 39 -21 43 -28 4 -8 15 -16 23 -19 12 -5 12 -7 -3 -13 -12 -5 -38 3 -77
23 -35 18 -68 28 -80 25 -11 -3 -27 0 -35 7 -25 21 -92 29 -112 15 -17 -13
-17 -14 0 -33 16 -17 16 -20 1 -32 -12 -11 -20 -11 -35 -2 -16 10 -19 9 -19
-8 0 -22 -26 -82 -53 -122 -10 -16 -15 -33 -12 -39 4 -5 -1 -19 -10 -29 -14
-15 -15 -22 -5 -42 24 -45 41 -58 62 -47 15 8 24 7 36 -4 9 -8 41 -20 70 -28
49 -12 56 -11 105 11 28 13 66 23 82 23 17 -1 44 10 64 25 50 37 103 39 115 4
3 -9 9 -24 14 -32 26 -45 32 -64 32 -108 0 -38 5 -53 24 -71 16 -15 26 -19 31
-12 12 21 25 0 25 -43 0 -62 19 -95 48 -85 12 5 22 14 22 20 0 7 8 18 18 25
14 11 15 16 5 33 -22 35 -14 43 17 21 l30 -22 31 26 c38 32 88 35 114 6 10
-11 22 -20 26 -20 4 0 15 26 24 58 8 31 25 86 37 122 31 93 35 288 8 345 -11
23 -19 32 -19 22 -1 -15 -6 -14 -35 10 -37 28 -55 71 -36 83 6 4 -5 18 -30 35
-22 15 -40 33 -40 39 0 6 -5 4 -10 -4 -6 -10 -10 -11 -10 -2 0 6 -5 12 -11 12
-6 0 -23 9 -38 20 -15 10 -36 19 -47 19 -10 -1 -44 2 -74 5 l-55 6 60 -29z
m152 -168 c-4 -21 -13 -42 -20 -48 -10 -7 -12 -17 -5 -35 l9 -25 -20 22 c-12
12 -21 27 -21 33 0 18 -17 11 -28 -12 -6 -14 -11 -17 -11 -8 -1 29 66 109 93
110 5 0 6 -17 3 -37z m99 -25 c-3 -17 -6 -37 -6 -46 0 -12 -5 -10 -24 7 l-24
23 -21 -21 c-12 -12 -27 -19 -33 -15 -7 5 -6 11 5 19 10 7 17 17 17 23 0 6 12
22 27 36 21 20 30 23 46 14 15 -8 18 -17 13 -40z m-581 -57 l40 -9 -40 0 c-22
0 -49 3 -60 8 l-20 9 20 0 c11 0 38 -4 60 -8z m138 -173 c-18 -18 -36 -28 -40
-24 -9 9 42 56 60 56 6 0 -3 -14 -20 -32z m-453 -28 c0 -5 -7 -10 -16 -10 -8
0 -12 5 -9 10 3 6 10 10 16 10 5 0 9 -4 9 -10z m380 0 c0 -5 -5 -10 -11 -10
-5 0 -7 5 -4 10 3 6 8 10 11 10 2 0 4 -4 4 -10z"/>
<path d="M3217 4853 c-15 -26 -16 -61 -2 -67 12 -4 15 3 15 34 0 38 -4 48 -13
33z"/>
<path d="M2756 4832 c-3 -6 -1 -14 5 -17 14 -9 20 -2 10 14 -6 8 -11 9 -15 3z"/>
<path d="M2710 4822 c0 -13 59 -46 67 -38 3 3 -3 9 -13 12 -10 4 -27 14 -36
22 -11 9 -18 11 -18 4z"/>
<path d="M2610 4772 c0 -6 9 -16 20 -22 11 -6 20 -17 20 -25 0 -8 6 -15 14
-15 8 0 23 -3 33 -6 15 -5 15 -3 -2 7 -11 6 -35 25 -52 42 -18 17 -33 26 -33
19z"/>
<path d="M2670 4771 c0 -6 5 -13 10 -16 6 -3 10 1 10 9 0 9 -4 16 -10 16 -5 0
-10 -4 -10 -9z"/>
<path d="M2452 4737 c-27 -29 -28 -37 -3 -37 11 0 23 -5 26 -11 4 -6 14 -8 23
-4 8 3 19 0 24 -7 6 -10 8 -10 7 2 0 8 -12 30 -28 48 l-27 32 -22 -23z"/>
<path d="M2788 4719 c13 -11 97 -18 111 -9 9 5 -10 9 -52 12 -36 1 -63 0 -59
-3z"/>
<path d="M1580 4650 c-19 -11 -29 -19 -22 -20 14 0 72 28 72 35 0 9 -15 4 -50
-15z"/>
<path d="M1300 4595 c0 -30 3 -30 29 -8 23 19 19 33 -10 33 -14 0 -19 -7 -19
-25z"/>
<path d="M1865 4593 c-57 -31 -62 -32 -84 -17 -21 15 -134 24 -146 12 -12 -11
15 -48 39 -54 48 -12 212 35 232 67 8 13 -7 11 -41 -8z"/>
<path d="M1570 4555 c0 -9 9 -15 25 -15 28 0 34 15 9 24 -25 10 -34 7 -34 -9z"/>
<path d="M2047 4559 c7 -7 15 -10 18 -7 3 3 -2 9 -12 12 -14 6 -15 5 -6 -5z"/>
<path d="M1245 4550 c3 -5 8 -10 11 -10 2 0 4 5 4 10 0 6 -5 10 -11 10 -5 0
-7 -4 -4 -10z"/>
<path d="M1340 4550 c0 -5 5 -10 11 -10 5 0 7 5 4 10 -3 6 -8 10 -11 10 -2 0
-4 -4 -4 -10z"/>
<path d="M608 4533 c-19 -5 -26 -53 -7 -53 20 0 78 -52 77 -68 -3 -38 3 -51
28 -59 25 -8 26 -10 10 -26 -9 -9 -22 -30 -27 -47 -6 -16 -16 -30 -22 -31 -45
-3 -60 -8 -68 -20 -5 -8 -9 -58 -9 -111 l0 -98 48 6 c95 11 112 15 126 36 9
12 25 23 38 25 26 4 58 31 58 50 0 7 7 13 15 13 9 0 15 9 15 25 0 14 -4 25
-10 25 -5 0 -10 5 -10 11 0 5 4 8 8 5 4 -2 14 0 22 5 13 8 13 10 1 18 -13 8
-13 12 0 27 12 15 12 16 -9 10 -16 -5 -22 -3 -22 8 0 8 9 17 19 21 31 10 91
82 91 110 0 27 -10 31 -42 14 -40 -21 -13 9 37 43 64 42 66 63 7 62 -34 -1
-50 -8 -76 -33 -33 -32 -88 -43 -102 -20 -4 6 -20 8 -38 5 -24 -5 -37 -1 -52
12 -14 14 -26 17 -45 12 -21 -6 -26 -4 -25 7 1 18 -11 23 -36 16z m186 -187
c-3 -8 -14 -14 -24 -13 -23 2 -14 27 11 27 12 0 16 -5 13 -14z"/>
<path d="M1495 4519 c-5 -7 -24 -10 -51 -6 -53 6 -58 -9 -17 -48 30 -27 73
-34 73 -11 0 8 14 17 30 21 29 6 42 25 18 25 -6 0 -19 7 -29 16 -12 11 -19 12
-24 3z"/>
<path d="M1332 4483 c2 -10 29 -33 61 -52 31 -19 57 -40 57 -48 0 -8 -4 -12
-9 -8 -5 3 -12 1 -16 -5 -3 -5 3 -10 14 -10 24 0 28 -18 6 -27 -9 -3 -24 2
-34 11 -22 20 -31 20 -31 2 0 -18 -61 -56 -90 -56 -19 0 -20 -2 -10 -15 8 -10
21 -13 38 -8 21 5 24 3 19 -11 -4 -10 -7 -22 -7 -26 0 -5 -19 -14 -42 -21 -55
-14 -82 -37 -67 -56 15 -17 14 -17 -50 6 l-54 19 32 7 c23 5 31 12 31 29 0 12
-5 27 -11 33 -6 6 -7 22 -3 38 6 26 9 27 49 22 38 -6 43 -4 53 18 11 23 10 25
-17 25 -16 0 -34 -7 -41 -15 -6 -8 -38 -17 -71 -21 -33 -4 -62 -11 -65 -15
-10 -17 -26 -9 -21 10 2 10 2 24 -2 30 -11 17 -49 -15 -56 -48 -4 -21 -11 -28
-21 -24 -20 7 -74 -68 -74 -103 0 -18 56 -74 74 -74 8 0 16 -9 19 -20 3 -11
12 -23 21 -26 36 -14 75 -61 78 -95 3 -30 6 -34 31 -32 15 1 27 -2 27 -6 0 -5
11 -16 26 -25 21 -15 33 -16 77 -6 44 9 58 8 84 -5 18 -9 35 -25 38 -35 4 -14
15 -20 35 -20 26 0 31 -5 40 -40 l11 -39 32 13 c18 8 44 19 60 25 34 13 35 31
2 31 -33 0 -32 18 0 26 28 7 47 37 64 101 26 95 221 289 221 219 0 -8 6 -16
13 -19 9 -3 9 -7 -2 -20 -12 -15 -11 -17 8 -17 12 0 24 -7 28 -15 8 -22 80
-58 88 -44 4 5 4 16 1 24 -10 28 88 94 141 95 12 0 29 10 37 22 20 29 20 38
-1 38 -9 0 -14 3 -10 6 3 3 -7 20 -23 37 -18 19 -25 34 -18 38 7 4 6 9 -3 15
-7 4 -14 3 -16 -3 -3 -7 -36 0 -90 18 -119 41 -135 32 -33 -18 l85 -41 -65 3
c-36 2 -90 12 -120 23 -30 11 -66 24 -80 27 l-24 8 26 -24 c21 -20 48 -79 35
-79 -2 0 -26 7 -53 17 -34 11 -68 35 -113 79 -36 35 -67 61 -70 58 -3 -3 7
-17 23 -30 15 -14 26 -28 22 -31 -3 -3 -14 5 -25 18 -10 13 -28 35 -40 49
l-21 25 -19 -23 c-18 -21 -20 -21 -25 -4 -3 10 -21 23 -39 30 -18 7 -52 28
-74 47 -46 39 -56 43 -51 18z m89 -185 c7 -13 17 -26 23 -31 7 -5 5 -12 -7
-21 -15 -12 -15 -15 -3 -19 14 -6 56 -77 56 -94 -1 -12 -40 39 -50 65 -14 32
-31 18 -23 -18 3 -17 1 -30 -4 -30 -29 0 -64 135 -41 158 18 18 36 14 49 -10z
m-281 -28 c0 -5 -5 -10 -11 -10 -5 0 -7 5 -4 10 3 6 8 10 11 10 2 0 4 -4 4
-10z m-157 -94 c2 -6 18 -9 36 -8 38 3 39 -16 1 -35 -32 -16 -67 2 -72 37 -6
41 2 57 18 35 7 -10 15 -23 17 -29z m138 -37 c8 -15 8 -19 0 -15 -17 11 -13
-3 11 -36 19 -28 19 -29 2 -20 -27 14 -58 51 -51 59 4 3 2 12 -4 20 -9 10 -7
13 9 13 12 0 26 -10 33 -21z m204 -39 c3 -6 0 -10 -7 -10 -15 0 -38 19 -38 32
0 10 36 -8 45 -22z"/>
<path d="M1960 4490 c36 -12 88 -12 95 0 4 6 -17 10 -57 9 -47 -1 -57 -3 -38
-9z"/>
<path d="M1090 4453 c-19 -7 -70 -61 -70 -74 0 -6 13 -1 29 10 16 12 32 21 36
21 9 0 34 31 35 43 0 8 -8 8 -30 0z"/>
<path d="M1130 4444 c0 -8 5 -12 10 -9 6 3 10 10 10 16 0 5 -4 9 -10 9 -5 0
-10 -7 -10 -16z"/>
<path d="M2038 4453 c7 -3 16 -2 19 1 4 3 -2 6 -13 5 -11 0 -14 -3 -6 -6z"/>
<path d="M1960 4377 c0 -12 59 -37 87 -37 24 0 25 2 13 15 -15 14 -100 33
-100 22z"/>
<path d="M2194 4338 c3 -18 8 -47 10 -64 2 -18 11 -43 19 -55 48 -74 59 -198
20 -227 -10 -7 -19 -25 -20 -39 -2 -29 14 -56 28 -48 4 3 12 -3 18 -12 9 -15
10 -13 11 12 0 17 -4 37 -9 45 -16 25 0 31 19 8 22 -27 20 -29 54 46 33 75 33
93 -6 145 -19 27 -32 56 -32 77 -2 34 -25 72 -75 121 -33 32 -44 29 -37 -9z"/>
<path d="M1210 4245 c-7 -8 -10 -22 -6 -30 9 -25 23 -17 23 15 0 35 -1 35 -17
15z"/>
<path d="M2430 4076 c0 -8 9 -17 19 -21 13 -4 18 -12 14 -21 -7 -18 32 -62 65
-75 15 -6 35 -4 62 7 46 18 52 34 14 34 -31 0 -64 17 -64 32 0 7 15 9 45 5 25
-4 45 -3 45 2 0 12 -46 29 -100 36 -25 3 -57 8 -72 11 -21 4 -28 2 -28 -10z"/>
<path d="M1840 4021 c0 -12 5 -21 10 -21 6 0 10 6 10 14 0 8 -4 18 -10 21 -5
3 -10 -3 -10 -14z"/>
<path d="M3257 4034 c-1 -2 -15 -4 -30 -6 -18 -3 -37 -18 -57 -46 l-31 -41 21
-21 c22 -22 41 -26 38 -7 -2 8 7 11 26 10 34 -3 34 -2 46 -42 7 -25 6 -31 -7
-31 -76 0 178 -104 368 -151 145 -36 163 -33 132 21 -10 18 -24 42 -30 55 -7
12 -33 35 -58 50 -25 16 -45 32 -45 37 0 13 -54 63 -83 76 -15 6 -26 16 -23
21 3 5 -9 20 -27 34 -24 18 -40 23 -65 19 -18 -2 -39 1 -48 9 -12 10 -119 21
-127 13z m238 -154 c3 -5 -3 -10 -15 -10 -12 0 -18 5 -15 10 3 6 10 10 15 10
5 0 12 -4 15 -10z"/>
<path d="M1754 3977 c3 -10 6 -23 6 -27 0 -14 61 -80 74 -80 6 0 1 8 -11 18
-12 9 -34 37 -48 62 -15 25 -24 37 -21 27z"/>
<path d="M2265 3851 c-8 -28 3 -48 36 -62 25 -10 29 -16 24 -36 -5 -21 -3 -24
15 -18 13 4 29 -1 46 -14 17 -13 36 -19 53 -16 14 2 55 9 90 14 70 11 80 16
64 32 -7 7 -26 3 -62 -11 -53 -20 -82 -21 -120 0 -28 14 -26 22 9 42 51 29 38
41 -35 36 -62 -5 -66 -4 -89 23 -22 26 -25 27 -31 10z m108 -68 c8 -7 -11 -33
-23 -33 -5 0 -6 9 -3 20 5 20 15 25 26 13z"/>
<path d="M1038 3852 c-24 -5 -23 -47 2 -72 24 -24 25 -30 5 -30 -8 0 -15 7
-15 15 0 24 -19 18 -32 -10 -6 -13 -19 -27 -29 -30 -37 -12 -59 -13 -64 -4 -4
5 -15 9 -26 9 -10 0 -19 4 -19 8 0 7 -16 11 -57 13 -24 1 -51 -5 -59 -14 -11
-10 -21 -9 -36 6 -7 7 -37 34 -65 61 l-53 49 0 -606 0 -605 54 28 c54 29 124
45 249 56 67 6 81 16 55 42 -13 13 -29 66 -54 176 -24 109 -1 251 47 283 13 9
29 23 34 30 6 8 23 15 38 17 15 1 38 12 50 24 20 19 26 20 50 9 16 -7 27 -20
27 -32 0 -17 7 -20 50 -20 42 0 50 3 52 20 2 14 9 19 23 17 36 -5 122 145 139
241 7 37 6 38 -16 33 l-23 -7 23 17 c25 19 29 44 6 44 -10 0 -13 6 -10 18 3 9
2 23 -3 31 -7 11 -17 8 -49 -17 -22 -18 -44 -32 -48 -32 -5 0 -2 6 7 13 17 13
35 57 23 57 -4 0 -16 -8 -27 -17 -19 -18 -19 -17 -12 14 l6 33 -27 -15 c-15
-8 -31 -12 -34 -10 -12 7 -6 70 7 70 7 0 18 6 25 13 6 6 18 12 25 12 7 0 13 6
13 14 0 8 -11 13 -27 13 -48 -1 -97 9 -120 24 -18 11 -25 11 -35 1 -14 -14
-32 -16 -24 -3 7 10 -22 19 -46 13z m-398 -246 c0 -2 -3 -11 -6 -20 -5 -12 -9
-13 -19 -3 -7 7 -11 15 -8 20 4 7 33 10 33 3z m630 0 c0 -2 -7 -7 -16 -10 -8
-3 -12 -2 -9 4 6 10 25 14 25 6z"/>
<path d="M2255 3770 c3 -5 13 -10 21 -10 8 0 12 5 9 10 -3 6 -13 10 -21 10 -8
0 -12 -4 -9 -10z"/>
<path d="M1268 3753 c7 -3 16 -2 19 1 4 3 -2 6 -13 5 -11 0 -14 -3 -6 -6z"/>
<path d="M2192 3708 c5 -15 28 -23 28 -10 0 5 -7 13 -16 16 -10 4 -14 1 -12
-6z"/>
<path d="M2185 3599 c-11 -17 0 -20 21 -4 17 13 17 14 2 15 -9 0 -20 -5 -23
-11z"/>
<path d="M3336 3601 c-8 -13 4 -42 15 -35 12 7 12 44 0 44 -6 0 -12 -4 -15 -9z"/>
<path d="M2344 3555 l-32 -32 27 -25 c14 -14 40 -28 56 -31 17 -3 39 -8 50
-12 18 -6 20 -2 17 44 -3 42 -9 54 -32 71 -37 26 -49 24 -86 -15z"/>
<path d="M2237 3485 c3 -8 9 -12 14 -9 12 7 11 11 -5 17 -10 4 -13 1 -9 -8z"/>
<path d="M2182 3460 c7 -11 20 -20 28 -20 12 0 13 2 1 9 -7 5 -10 14 -7 20 5
7 -1 11 -13 11 -19 0 -20 -2 -9 -20z"/>
<path d="M3172 3186 c1 -13 6 -22 10 -20 11 7 10 32 -2 39 -6 3 -9 -4 -8 -19z"/>
<path d="M3200 3130 c0 -5 5 -10 11 -10 5 0 7 5 4 10 -3 6 -8 10 -11 10 -2 0
-4 -4 -4 -10z"/>
<path d="M3232 3083 c-10 -18 -9 -22 8 -26 22 -6 23 -3 11 28 -8 19 -8 19 -19
-2z"/>
<path d="M3262 3014 c10 -10 20 -16 22 -13 3 3 -5 11 -17 18 -21 13 -21 12 -5
-5z"/>
<path d="M1374 2669 c-14 -23 14 -31 35 -10 l21 21 -24 0 c-14 0 -28 -5 -32
-11z"/>
<path d="M3574 2597 c-21 -22 -48 -86 -40 -95 6 -6 66 90 66 106 0 16 -1 15
-26 -11z"/>
<path d="M1390 2599 c0 -5 -4 -8 -10 -4 -5 3 -5 -7 1 -25 6 -16 15 -28 19 -25
5 3 19 -13 31 -35 13 -22 30 -40 38 -40 12 0 12 3 3 12 -7 7 -12 22 -12 35 0
13 -7 26 -15 29 -20 8 -19 31 3 44 15 10 14 10 -5 5 -12 -3 -24 -1 -28 5 -8
13 -25 13 -25 -1z"/>
<path d="M3724 2591 c-40 -10 -56 -20 -49 -32 14 -22 95 5 95 32 0 10 -2 10
-46 0z"/>
<path d="M3470 2571 c0 -5 6 -12 13 -14 8 -4 9 -8 1 -14 -6 -4 -13 -16 -17
-25 -4 -12 -2 -15 9 -11 18 7 46 58 37 67 -10 9 -43 7 -43 -3z"/>
<path d="M603 2513 c-9 -3 -13 -35 -13 -108 0 -92 2 -105 19 -114 21 -12 34
-1 45 37 10 31 46 28 81 -8 15 -16 31 -27 35 -25 5 3 10 -1 13 -9 4 -10 25
-14 74 -14 67 0 132 -4 247 -17 67 -8 71 8 6 25 -57 15 -162 64 -219 101 -57
37 -70 70 -37 94 19 14 16 15 -51 12 -40 -1 -73 1 -73 4 0 4 -19 9 -42 11 -24
3 -50 7 -58 11 -8 3 -21 3 -27 0z"/>
<path d="M886 2464 c-3 -7 1 -17 7 -22 42 -33 217 -104 289 -116 l38 -7 -7 33
c-5 31 -44 94 -67 111 -6 4 -33 7 -61 7 -27 0 -82 1 -122 3 -52 3 -73 1 -77
-9z"/>
<path d="M2905 2400 c-3 -5 -1 -10 4 -10 6 0 11 5 11 10 0 6 -2 10 -4 10 -3 0
-8 -4 -11 -10z"/>
<path d="M3560 2396 c0 -9 5 -16 10 -16 6 0 10 4 10 9 0 6 -4 13 -10 16 -5 3
-10 -1 -10 -9z"/>
<path d="M1338 2360 c3 -20 -2 -37 -12 -49 -16 -17 -16 -20 0 -35 9 -9 17 -29
18 -44 1 -15 5 -33 9 -39 5 -8 3 -13 -7 -13 -12 0 -15 -17 -15 -92 0 -51 -1
-142 -3 -203 -2 -103 0 -116 31 -203 22 -61 30 -97 24 -103 -7 -7 -3 -40 10
-97 10 -48 21 -115 24 -149 4 -54 2 -62 -15 -67 -30 -10 -45 -55 -47 -141 -1
-53 -7 -91 -18 -112 -9 -18 -17 -47 -17 -66 0 -18 -5 -38 -10 -43 -8 -8 -8
-19 0 -38 5 -15 10 -44 10 -65 0 -50 35 -161 50 -161 5 0 8 64 8 142 -1 158
19 281 68 415 l27 73 47 -1 c49 -2 70 5 70 22 0 13 -28 11 -32 -3 -7 -21 -38
0 -38 27 0 21 5 25 28 25 53 0 59 16 14 39 -54 27 -72 56 -72 111 0 69 69 158
157 204 43 22 61 20 65 -6 2 -15 9 -21 18 -18 8 2 54 6 102 8 65 3 94 -1 118
-13 42 -22 33 -40 -18 -40 -23 0 -42 -2 -42 -4 0 -2 11 -12 25 -23 16 -12 25
-29 25 -48 0 -20 10 -35 37 -56 20 -15 31 -30 25 -32 -7 -2 -12 -12 -12 -23 0
-10 -5 -19 -11 -19 -23 0 4 -20 29 -21 26 -1 26 -1 -4 -8 -66 -16 -72 -36 -12
-46 l41 -7 -33 -14 c-29 -13 -35 -12 -50 1 -9 8 -24 15 -34 15 -9 0 -19 7 -22
15 -4 8 -11 15 -18 15 -6 0 -28 16 -49 37 -35 33 -97 54 -97 33 0 -16 -42 3
-68 32 -15 16 -37 34 -50 39 -29 11 -38 36 -24 60 17 26 15 34 -4 18 -25 -21
-64 -86 -64 -108 0 -11 20 -41 45 -68 25 -26 45 -52 45 -57 0 -4 9 -6 20 -3
21 5 28 -7 10 -18 -18 -11 -11 -27 9 -20 14 4 25 -2 38 -21 22 -33 123 -138
135 -140 4 -1 12 -2 16 -3 5 0 19 -11 32 -23 30 -28 123 -61 129 -46 5 14 -39
47 -62 48 -18 0 -34 26 -23 37 4 4 36 -7 72 -25 58 -29 64 -34 54 -52 -14 -26
-5 -40 26 -40 23 0 24 1 10 16 -24 23 -19 34 14 34 17 0 30 -5 30 -10 0 -6 8
-5 20 2 29 18 25 37 -10 49 -16 6 -32 19 -35 30 -4 10 -11 19 -16 19 -5 0 -9
7 -9 15 0 18 18 19 89 5 31 -6 60 -6 73 0 19 7 20 9 5 9 -10 1 -17 7 -14 14 3
8 25 11 78 9 58 -3 71 -1 62 8 -13 14 -6 40 11 40 12 0 14 34 3 60 -3 8 -5 24
-4 35 2 18 -3 20 -63 17 -55 -3 -70 0 -93 18 -15 12 -27 30 -27 40 0 9 -7 23
-15 30 -8 6 -26 32 -40 56 -25 42 -27 55 -32 212 -3 105 -10 174 -18 187 -7
12 -9 31 -4 47 4 16 3 30 -2 34 -5 3 -9 -2 -9 -11 0 -9 -4 -14 -8 -11 -5 3 -9
-8 -10 -25 0 -17 -8 -39 -16 -48 -9 -10 -13 -21 -9 -26 5 -4 2 -5 -5 -1 -7 5
-27 10 -44 13 -17 2 -37 10 -43 16 -29 29 -65 56 -65 51 0 -3 -7 2 -16 11 -11
11 -27 14 -49 11 -20 -3 -39 0 -51 9 -10 8 -29 15 -41 15 -13 0 -23 5 -23 12
0 6 -2 9 -5 6 -14 -13 10 -37 43 -43 36 -6 90 -40 80 -50 -3 -3 -15 4 -28 15
-13 11 -30 21 -39 21 -9 1 -34 3 -56 4 l-40 3 35 -10 c84 -22 85 -23 85 -48 0
-14 4 -32 10 -40 5 -8 9 -42 10 -75 0 -33 4 -68 9 -77 6 -14 4 -18 -12 -18
-11 0 -22 -5 -24 -12 -7 -19 -38 -1 -38 22 0 11 5 20 10 20 20 0 9 21 -15 30
-31 12 -34 49 -6 57 17 4 18 8 8 23 -9 15 -8 23 5 37 23 25 9 44 -35 47 -20 2
-42 8 -49 13 -7 6 -26 13 -41 17 -15 4 -30 13 -34 21 -10 29 -61 76 -66 63 -4
-10 -6 -10 -6 0 -1 6 -8 12 -16 12 -8 0 -12 6 -9 14 3 8 1 17 -5 21 -6 3 -11
18 -11 33 0 21 -2 24 -10 12 -5 -8 -10 -13 -11 -10 -7 46 -7 70 1 70 6 0 10 7
10 16 0 8 -4 13 -9 10 -10 -7 -1 47 10 54 5 3 0 11 -10 17 -17 11 -19 9 -16
-13 1 -13 -2 -27 -6 -30 -5 -3 -9 9 -9 25 0 17 -4 31 -8 31 -4 0 -8 10 -9 21
-2 25 -2 25 -29 33 -18 6 -20 3 -16 -24z m66 -439 c-14 -23 -27 -41 -28 -41
-1 0 -1 12 0 27 1 24 41 70 51 59 3 -2 -8 -23 -23 -45z m126 5 c0 -2 -8 -10
-17 -17 -16 -13 -17 -12 -4 4 13 16 21 21 21 13z m490 -63 c0 -7 -7 -16 -15
-19 -8 -4 -15 -13 -15 -21 0 -8 -4 -11 -10 -8 -13 8 -13 27 0 60 9 23 13 25
25 15 8 -7 15 -19 15 -27z m-195 -514 c5 -5 23 -9 40 -9 18 0 41 -10 57 -25
15 -14 33 -25 40 -25 7 0 2 -6 -12 -13 -50 -26 -57 -26 -81 0 -19 20 -20 25
-6 20 27 -10 20 1 -12 17 -21 11 -31 12 -39 4 -15 -15 -53 18 -45 38 6 15 38
11 58 -7z m235 -19 c0 -5 -4 -10 -10 -10 -5 0 -10 5 -10 10 0 6 5 10 10 10 6
0 10 -4 10 -10z m160 -9 c0 -16 -14 -20 -33 -10 -15 9 -17 13 -7 19 14 9 40 3
40 -9z m3 -48 c-7 -2 -19 -2 -25 0 -7 3 -2 5 12 5 14 0 19 -2 13 -5z m-192
-39 c16 -3 28 -11 26 -17 -5 -15 -67 -22 -67 -8 0 6 -11 11 -24 11 -26 0 -40
12 -29 24 4 4 20 4 35 1 15 -3 42 -8 59 -11z m-121 -27 c21 -4 20 -4 -7 -6
-25 -1 -33 3 -33 17 0 11 3 13 8 6 4 -7 18 -14 32 -17z"/>
<path d="M1805 2370 c10 -11 20 -20 22 -20 2 0 -2 9 -9 20 -7 11 -17 20 -22
20 -5 0 -1 -9 9 -20z"/>
<path d="M3487 2373 c-4 -3 -7 -13 -7 -22 1 -13 3 -13 11 2 11 19 8 33 -4 20z"/>
<path d="M3030 2320 c0 -27 2 -50 5 -50 16 0 75 36 72 44 -2 5 -20 20 -40 33
l-37 23 0 -50z"/>
<path d="M4315 2340 c-8 -13 5 -13 25 0 13 8 13 10 -2 10 -9 0 -20 -4 -23 -10z"/>
<path d="M3427 2250 c5 -20 15 -25 26 -13 8 7 -11 33 -23 33 -5 0 -6 -9 -3
-20z"/>
<path d="M3030 2205 c0 -13 4 -14 20 -5 11 6 20 13 20 15 0 3 -9 5 -20 5 -11
0 -20 -7 -20 -15z"/>
<path d="M3288 2181 c-23 -23 -23 -31 1 -31 10 0 22 7 25 16 14 37 2 44 -26
15z"/>
<path d="M2090 2160 c-10 -6 -11 -10 -3 -10 7 0 10 -6 7 -14 -3 -8 -1 -17 4
-20 12 -7 24 36 14 46 -4 4 -14 3 -22 -2z"/>
<path d="M4460 2161 c0 -6 5 -13 10 -16 6 -3 10 1 10 9 0 9 -4 16 -10 16 -5 0
-10 -4 -10 -9z"/>
<path d="M3996 2135 c-9 -23 -8 -25 10 -25 9 0 27 -9 41 -20 30 -24 45 -26 37
-5 -7 17 21 21 31 5 3 -5 15 -10 26 -10 48 0 -34 49 -107 65 -24 4 -33 2 -38
-10z"/>
<path d="M3946 2065 c4 -8 14 -15 24 -15 10 0 25 -3 34 -6 27 -10 18 12 -9 24
-36 17 -56 15 -49 -3z"/>
<path d="M2745 2020 c-7 -32 1 -54 16 -45 12 8 12 75 0 75 -5 0 -12 -13 -16
-30z"/>
<path d="M3500 2010 c0 -13 40 -13 60 0 11 7 5 10 -22 10 -21 0 -38 -4 -38
-10z"/>
<path d="M4390 1895 c7 -8 21 -15 31 -15 12 0 16 5 13 15 -4 8 -17 15 -31 15
-22 0 -24 -2 -13 -15z"/>
<path d="M3498 1683 c7 -3 16 -2 19 1 4 3 -2 6 -13 5 -11 0 -14 -3 -6 -6z"/>
<path d="M2906 1637 l-29 -23 18 -55 c10 -30 22 -60 28 -67 5 -6 20 -40 32
-75 l23 -62 46 2 c44 2 92 23 178 80 44 29 53 49 33 69 -9 10 -13 24 -9 40 3
13 2 24 -3 24 -5 0 -49 -18 -98 -40 -50 -22 -104 -40 -122 -40 -58 0 -89 63
-38 76 24 6 25 8 10 23 -8 10 -15 22 -15 27 0 6 -6 18 -12 27 -12 16 -15 15
-42 -6z"/>
<path d="M5375 1640 c-7 -12 2 -30 16 -30 12 0 12 27 0 35 -5 3 -12 1 -16 -5z"/>
<path d="M4140 1459 c0 -5 5 -7 10 -4 6 3 10 8 10 11 0 2 -4 4 -10 4 -5 0 -10
-5 -10 -11z"/>
<path d="M1130 1314 c0 -14 3 -14 15 -4 8 7 15 14 15 16 0 2 -7 4 -15 4 -8 0
-15 -7 -15 -16z"/>
<path d="M1241 1201 c-9 -6 -10 -11 -2 -15 15 -10 53 3 46 15 -8 11 -26 11
-44 0z"/>
<path d="M2180 1156 c0 -8 7 -16 15 -20 17 -6 18 -4 9 18 -8 20 -24 21 -24 2z"/>
<path d="M2100 1050 c0 -5 5 -10 11 -10 5 0 7 5 4 10 -3 6 -8 10 -11 10 -2 0
-4 -4 -4 -10z"/>
<path d="M592 479 c2 -6 8 -10 13 -10 5 0 11 4 13 10 2 6 -4 11 -13 11 -9 0
-15 -5 -13 -11z"/>
<path d="M1353 332 c-18 -35 -19 -43 -7 -53 11 -9 16 -6 24 17 6 15 10 39 8
52 -3 23 -5 21 -25 -16z"/>
<path d="M1256 218 c-15 -8 -16 -12 -5 -19 8 -5 26 -9 40 -9 17 0 30 -8 37
-22 10 -22 11 -21 11 9 1 44 -41 65 -83 41z"/>
<path d="M1135 200 c-10 -11 -15 -20 -10 -20 4 0 2 -7 -5 -15 -16 -19 -1 -19
38 1 19 9 32 23 32 35 0 25 -32 25 -55 -1z"/>
<path d="M4445 188 c-17 -4 -36 -6 -43 -3 -7 3 -15 -2 -18 -10 -5 -12 -10 -12
-27 -4 -16 9 -23 8 -33 -5 -7 -10 -15 -13 -18 -8 -3 5 -17 8 -31 7 -14 -2 -25
1 -25 6 0 6 -8 5 -20 -1 -11 -6 -24 -9 -28 -7 -4 3 -13 -1 -20 -9 -8 -9 -9
-14 -2 -14 6 0 10 -8 8 -17 -2 -13 3 -17 17 -15 99 14 106 14 124 -2 16 -15
19 -15 31 -1 11 13 11 16 0 13 -7 -2 -15 3 -17 10 -3 6 -1 12 4 12 19 -1 34
-18 37 -46 3 -16 7 -37 11 -47 10 -23 57 -47 92 -46 16 0 22 3 13 6 -26 10
-80 55 -91 75 -9 16 -8 18 8 9 22 -12 54 -24 68 -26 6 -1 22 -5 37 -9 27 -8
59 7 102 46 19 18 19 19 -17 52 -34 31 -39 32 -50 17 -16 -22 -45 -20 -66 5
-13 16 -22 19 -46 12z m-95 -28 c0 -5 -4 -10 -10 -10 -5 0 -10 5 -10 10 0 6 5
10 10 10 6 0 10 -4 10 -10z"/>
<path d="M1300 95 c-14 -16 -6 -35 16 -35 8 0 14 10 14 25 0 28 -12 32 -30 10z"/>
<path d="M4018 48 c11 -11 103 -29 111 -22 3 2 -4 11 -15 19 -23 18 -114 21
-96 3z"/>
<path d="M4652 28 c7 -20 48 -23 48 -4 0 11 -9 16 -26 16 -16 0 -24 -5 -22
-12z"/>
</g>
</svg>
