<?xml version="1.0" standalone="no"?>
<!DOCTYPE svg PUBLIC "-//W3C//DTD SVG 20010904//EN"
 "http://www.w3.org/TR/2001/REC-SVG-20010904/DTD/svg10.dtd">
<svg version="1.0" xmlns="http://www.w3.org/2000/svg"
 width="260.000000pt" height="260.000000pt" viewBox="0 0 260.000000 260.000000"
 preserveAspectRatio="xMidYMid meet">
<metadata>
Created by potrace 1.11, written by Peter Selinger 2001-2013
</metadata>
<g transform="translate(0.000000,260.000000) scale(0.100000,-0.100000)"
fill="#000000" stroke="none">
<path d="M2460 2585 c0 -12 13 -15 55 -15 42 0 55 3 55 15 0 12 -13 15 -55 15
-42 0 -55 -3 -55 -15z"/>
<path d="M2591 2584 c0 -11 3 -14 6 -6 3 7 2 16 -1 19 -3 4 -6 -2 -5 -13z"/>
<path d="M2488 2543 c-39 -6 -37 -33 2 -33 23 0 30 4 30 20 0 11 -1 19 -2 19
-2 -1 -15 -4 -30 -6z"/>
<path d="M2550 2529 c0 -15 4 -19 16 -15 9 3 20 6 25 6 5 0 9 7 9 15 0 9 -9
15 -25 15 -19 0 -25 -5 -25 -21z"/>
<path d="M2470 2475 c0 -12 13 -15 55 -15 42 0 55 3 55 15 0 12 -13 15 -55 15
-42 0 -55 -3 -55 -15z"/>
<path d="M1475 2430 c3 -5 17 -10 31 -10 14 0 22 4 19 10 -3 6 -17 10 -31 10
-14 0 -22 -4 -19 -10z"/>
<path d="M1640 2433 c-19 -2 -44 -8 -55 -12 -42 -19 -57 -20 -106 -10 -51 11
-59 10 -121 -22 -26 -13 -22 7 4 26 21 14 -2 15 -262 9 -304 -7 -559 -20 -440
-23 79 -2 100 -12 83 -40 -11 -18 -10 -20 10 -19 55 2 98 -3 93 -11 -3 -4 -45
-9 -93 -10 -48 -1 -90 -4 -94 -7 -4 -2 -5 -145 -2 -317 3 -171 3 -309 -1 -306
-4 4 -8 36 -9 73 -2 49 -7 70 -21 83 -10 10 -16 13 -12 6 3 -6 2 -14 -4 -18
-6 -4 -10 8 -10 29 0 20 4 36 8 36 4 0 9 16 10 35 2 21 -2 35 -9 35 -8 0 -7 5
2 17 10 11 10 14 1 9 -9 -5 -12 3 -12 28 0 20 -4 36 -8 36 -9 0 -8 -139 4
-597 l6 -233 49 61 c29 36 49 72 49 86 0 13 5 33 10 44 8 15 7 19 -4 19 -21 0
-22 13 -22 150 l1 125 69 3 c84 4 100 -1 87 -25 -5 -10 -11 -34 -13 -53 -2
-26 1 -35 12 -35 10 0 15 11 16 35 2 73 3 77 17 59 7 -8 20 -18 30 -22 14 -5
17 -1 15 26 -1 17 -7 39 -13 47 -29 37 -36 80 -33 196 3 100 7 125 24 154 15
24 19 41 14 55 -14 33 -11 65 5 65 8 0 23 8 34 19 10 10 40 23 67 28 27 6 39
11 27 12 -36 2 -27 18 12 23 35 4 46 -4 23 -18 -8 -5 -4 -10 9 -15 12 -4 20
-15 19 -24 -2 -16 -8 -17 -43 -9 -31 8 -133 -15 -140 -31 -6 -19 35 -61 68
-69 56 -13 209 -163 209 -205 0 -10 6 -26 14 -36 8 -11 12 -24 9 -31 -6 -15
32 -126 40 -117 14 14 6 87 -13 118 l-20 32 36 32 c40 37 49 36 34 -3 -16 -43
-12 -103 11 -157 12 -27 23 -49 26 -49 18 0 43 24 43 41 0 18 4 20 28 15 19
-5 23 -4 13 3 -16 10 -23 51 -9 51 5 0 11 -7 14 -15 7 -18 25 -20 22 -3 -2 7
13 12 35 14 21 2 46 9 55 16 13 11 15 10 9 -17 -7 -28 -6 -29 8 -11 8 11 15
28 15 37 0 22 40 90 49 85 4 -3 13 0 21 6 12 8 12 9 -2 4 -10 -3 -18 -1 -18 4
0 17 17 19 36 6 10 -8 24 -12 31 -9 7 3 16 -2 19 -11 3 -9 15 -16 25 -16 11 0
19 -7 19 -16 0 -8 -4 -12 -10 -9 -5 3 -10 2 -10 -4 0 -6 19 -20 42 -32 23 -12
50 -31 60 -43 19 -21 19 -20 14 64 -3 47 -9 181 -12 298 -5 159 -11 217 -21
227 -7 8 -13 18 -13 24 0 11 -80 13 -160 4z m21 -45 c16 -18 29 -40 29 -50 0
-13 8 -18 25 -18 24 0 25 -2 27 -70 1 -38 2 -78 2 -87 1 -10 -5 -17 -12 -15
-10 2 -10 -2 -2 -17 13 -25 13 -41 -1 -41 -6 0 -9 6 -6 14 4 9 -4 13 -25 14
-24 1 -27 -2 -17 -14 7 -9 8 -14 1 -14 -6 0 -14 -9 -17 -21 -4 -11 -12 -18
-19 -16 -8 3 -17 -12 -25 -38 -9 -32 -28 -57 -67 -92 -76 -66 -76 -66 -127
-45 -58 24 -50 112 10 112 11 0 24 5 31 12 9 9 12 9 12 0 0 -7 7 -12 16 -10
10 2 19 -2 21 -8 5 -16 -38 -25 -77 -17 -25 5 -32 3 -28 -8 7 -21 98 -12 123
12 17 17 18 19 2 19 -9 0 -17 6 -17 13 0 6 -4 18 -9 26 -8 12 -12 13 -26 1
-12 -10 -19 -10 -27 -2 -17 17 -26 15 -33 -8 -5 -15 -14 -20 -33 -18 -24 3
-27 0 -25 -25 l2 -28 -29 36 c-28 35 -47 106 -41 150 2 11 6 49 10 85 l6 65
46 1 c25 1 67 11 95 22 27 11 61 23 76 26 14 3 33 9 41 12 9 3 25 -4 39 -18
12 -12 29 -23 38 -23 8 0 16 -10 18 -22 2 -16 -2 -23 -12 -23 -13 0 -16 -15
-16 -91 0 -61 3 -88 11 -84 6 4 8 13 5 20 -2 7 4 21 15 31 10 9 19 21 19 27 0
5 9 22 21 38 19 27 18 56 -2 44 -5 -4 -9 5 -9 18 0 14 -6 30 -14 36 -8 7 -18
25 -21 41 -3 16 -18 40 -32 54 -14 14 -20 26 -14 26 7 0 25 -15 42 -32z m-331
-2 c0 -2 -8 -10 -17 -17 -16 -13 -17 -12 -4 4 13 16 21 21 21 13z m-520 -96
c0 -4 -9 -15 -20 -25 -15 -14 -23 -15 -34 -6 -11 9 -15 9 -19 -1 -3 -7 -6 -3
-6 10 -1 13 3 21 8 17 5 -3 12 -2 14 2 7 10 57 13 57 3z m116 -39 c-12 -19
-22 -12 -24 16 -2 25 -1 26 14 11 9 -9 13 -21 10 -27z m-106 10 c0 -6 -4 -13
-10 -16 -5 -3 -10 1 -10 9 0 9 5 16 10 16 6 0 10 -4 10 -9z m-19 -46 c10 4 19
2 19 -3 0 -5 -10 -13 -22 -17 l-23 -8 22 -4 c20 -4 21 -7 12 -25 -8 -15 -13
-17 -19 -8 -12 20 -28 3 -22 -25 2 -15 -2 -33 -10 -43 -8 -9 -18 -25 -21 -34
-4 -10 -14 -18 -24 -18 -15 0 -19 10 -21 57 -2 32 -5 59 -7 61 -6 7 46 52 57
49 7 -1 17 8 23 21 8 18 11 19 13 7 3 -11 10 -14 23 -10z m258 -1 c18 -9 30
-18 27 -21 -8 -9 -76 18 -71 28 8 12 6 12 44 -7z m-364 -31 c-9 -8 -19 -13
-22 -9 -9 8 18 37 28 30 5 -3 2 -12 -6 -21z m364 -2 c7 -5 9 -11 4 -14 -6 -4
-19 0 -29 8 -15 11 -16 14 -4 15 8 0 21 -4 29 -9z m224 -63 c5 -37 3 -43 -12
-33 -13 8 -15 65 -2 65 5 0 11 -15 14 -32z m465 -105 c-2 -9 -9 -18 -16 -19
-7 -1 -8 0 -2 3 17 8 11 21 -12 26 -19 4 -18 5 5 6 22 1 28 -3 25 -16z m-1021
-22 c11 -17 9 -23 -13 -40 -14 -11 -23 -25 -19 -31 3 -5 2 -17 -3 -27 -7 -12
-11 -5 -13 31 -7 77 20 113 48 67z m1023 -31 c0 -5 -8 -10 -17 -10 -15 0 -16
2 -3 10 19 12 20 12 20 0z m-994 -67 c13 -14 24 -35 24 -47 0 -12 9 -36 20
-54 11 -18 20 -37 20 -42 0 -6 -31 -10 -70 -10 l-70 0 0 30 c0 23 5 30 19 30
23 0 37 30 19 41 -9 6 -9 13 0 34 9 19 9 31 2 40 -5 6 -7 15 -3 19 4 4 9 2 11
-4 2 -6 15 -23 28 -37z m575 -28 c-6 -24 -8 -26 -14 -11 -10 25 3 74 14 54 4
-8 5 -28 0 -43z m-76 -35 c7 -24 7 -24 -9 -5 -8 11 -16 27 -16 35 0 20 16 1
25 -30z"/>
<path d="M1397 2179 c7 -7 15 -10 18 -7 3 3 -2 9 -12 12 -14 6 -15 5 -6 -5z"/>
<path d="M1535 2170 c-8 -13 5 -13 25 0 13 8 13 10 -2 10 -9 0 -20 -4 -23 -10z"/>
<path d="M1375 2151 l-30 -7 28 -7 c15 -4 32 -5 37 -2 4 3 11 -1 14 -7 3 -7 5
-4 3 6 -2 23 -12 26 -52 17z"/>
<path d="M1505 2141 c-3 -5 -1 -12 5 -16 5 -3 10 -1 10 5 0 7 6 8 19 0 14 -7
22 -7 26 0 4 6 11 8 16 5 5 -4 9 -1 9 4 0 13 -77 15 -85 2z"/>
<path d="M1547 1998 c4 -7 6 -22 5 -33 -2 -19 -2 -19 9 -2 12 20 6 47 -11 47
-7 0 -8 -5 -3 -12z"/>
<path d="M718 2134 c3 -17 8 -22 15 -15 11 11 3 41 -11 41 -5 0 -7 -12 -4 -26z"/>
<path d="M735 2100 c-3 -5 -1 -10 4 -10 6 0 11 5 11 10 0 6 -2 10 -4 10 -3 0
-8 -4 -11 -10z"/>
<path d="M2493 2433 c-35 -7 -29 -33 7 -33 23 0 30 4 30 20 0 11 -3 19 -7 19
-5 -1 -18 -4 -30 -6z"/>
<path d="M2552 2423 c2 -9 13 -18 26 -19 16 -3 22 1 22 16 0 15 -7 20 -26 20
-18 0 -25 -5 -22 -17z"/>
<path d="M2080 2377 c0 -5 -4 -6 -9 -2 -10 6 -14 -140 -5 -215 l5 -45 101 3
101 3 -7 91 c-3 50 -6 111 -6 135 l0 44 -90 -3 c-49 -2 -90 -7 -90 -11z m44
-108 c-2 -4 -12 -9 -23 -12 -13 -3 -18 -1 -14 8 2 8 13 13 23 12 10 -1 17 -4
14 -8z"/>
<path d="M2470 2365 c0 -12 13 -15 60 -15 47 0 60 3 60 15 0 12 -13 15 -60 15
-47 0 -60 -3 -60 -15z"/>
<path d="M2555 2320 c-9 -15 4 -30 26 -30 12 0 19 7 19 20 0 21 -33 29 -45 10z"/>
<path d="M2470 2306 c0 -12 10 -16 36 -16 45 0 42 24 -4 28 -24 2 -32 -1 -32
-12z"/>
<path d="M2475 2260 c-3 -5 -3 -14 0 -20 13 -20 115 -6 115 16 0 17 -105 20
-115 4z"/>
<path d="M2480 2195 c0 -10 10 -15 30 -15 20 0 30 5 30 15 0 10 -10 15 -30 15
-20 0 -30 -5 -30 -15z"/>
<path d="M2560 2195 c0 -8 9 -15 20 -15 11 0 20 7 20 15 0 8 -9 15 -20 15 -11
0 -20 -7 -20 -15z"/>
<path d="M2508 2153 c-16 -2 -28 -11 -28 -19 0 -12 12 -14 58 -12 43 2 57 7
57 18 0 16 -36 21 -87 13z"/>
<path d="M2497 2093 c-28 -7 -14 -28 19 -28 19 0 30 6 32 18 3 17 -12 20 -51
10z"/>
<path d="M2570 2080 c0 -11 7 -20 15 -20 8 0 15 9 15 20 0 11 -7 20 -15 20 -8
0 -15 -9 -15 -20z"/>
<path d="M2073 1953 c4 -71 7 -131 7 -135 0 -12 55 -9 67 3 7 7 19 8 30 4 30
-13 83 -11 83 3 0 6 5 12 11 12 7 0 9 26 5 78 -3 42 -5 96 -6 120 l0 42 -101
0 -102 0 6 -127z m131 -28 c-7 -16 -24 -21 -24 -6 0 8 7 13 27 20 1 1 0 -6 -3
-14z"/>
<path d="M2486 2025 c5 -11 21 -15 60 -15 41 0 54 4 54 15 0 12 -13 15 -60 15
-49 0 -58 -3 -54 -15z"/>
<path d="M1054 2015 c-24 -18 -7 -19 26 0 16 9 19 14 9 15 -8 0 -24 -7 -35
-15z"/>
<path d="M1078 1989 c-32 -18 -19 -27 22 -16 22 6 40 15 40 19 0 11 -42 9 -62
-3z"/>
<path d="M2508 1983 c-31 -8 -21 -33 13 -33 23 0 30 4 27 17 -3 18 -15 23 -40
16z"/>
<path d="M2572 1973 c5 -25 28 -28 28 -4 0 12 -6 21 -16 21 -9 0 -14 -7 -12
-17z"/>
<path d="M918 1963 c-21 -8 -38 -19 -38 -25 0 -5 10 -2 22 6 12 9 30 16 40 16
10 0 18 5 18 10 0 12 4 13 -42 -7z"/>
<path d="M909 1919 c-31 -31 -16 -34 28 -5 32 22 34 26 15 26 -12 0 -31 -9
-43 -21z"/>
<path d="M2490 1910 c0 -18 7 -20 55 -20 48 0 55 2 55 20 0 18 -7 20 -55 20
-48 0 -55 -2 -55 -20z"/>
<path d="M2576 1873 c-12 -12 -6 -33 9 -33 8 0 15 6 15 14 0 17 -14 28 -24 19z"/>
<path d="M2490 1856 c0 -12 10 -16 36 -16 45 0 42 24 -4 28 -24 2 -32 -1 -32
-12z"/>
<path d="M1068 1815 c-86 -30 -94 -35 -77 -46 19 -12 29 -11 27 2 -4 16 103
54 112 39 5 -8 9 -7 14 5 12 32 12 32 -76 0z"/>
<path d="M2513 1813 c-13 -2 -23 -8 -23 -13 0 -9 20 -25 32 -25 18 0 18 -15 0
-15 -12 0 -22 -4 -22 -10 0 -5 -5 -10 -12 -10 -6 0 -20 -7 -30 -17 -10 -9 -18
-11 -18 -6 0 6 -9 13 -20 16 -25 6 -26 -8 -2 -23 14 -8 12 -9 -10 -4 -22 5
-28 2 -28 -10 0 -10 -6 -13 -15 -10 -8 4 -15 1 -15 -5 0 -6 9 -11 20 -11 25 0
27 -30 3 -31 -34 -2 -68 3 -79 12 -6 5 -14 7 -18 4 -3 -3 -2 1 4 7 14 17 12
28 -5 28 -8 0 -15 -9 -15 -21 0 -11 -5 -17 -10 -14 -6 4 -7 11 -4 17 5 8 1 9
-10 5 -14 -6 -16 -3 -11 16 5 20 5 20 -8 5 -12 -15 -14 -15 -24 0 -11 15 -12
15 -13 -3 -1 -20 -1 -20 -15 -1 -21 27 -19 36 8 36 21 0 47 16 47 30 0 3 -16
6 -35 6 -19 0 -35 -4 -35 -8 0 -4 -11 -8 -25 -8 -38 0 -45 -27 -38 -134 4 -71
10 -96 20 -96 7 0 13 -4 13 -10 0 -6 26 -10 59 -10 78 0 88 -5 102 -48 7 -21
17 -40 22 -44 6 -4 -6 -5 -26 -4 l-36 3 16 -27 c9 -16 22 -26 30 -23 7 3 13
-2 13 -11 0 -9 -4 -16 -10 -16 -5 0 -10 -7 -10 -15 0 -8 4 -15 9 -15 5 0 12
-11 15 -25 4 -14 11 -25 17 -25 6 0 7 -4 4 -10 -3 -6 1 -7 9 -4 23 9 20 -12
-6 -48 -17 -22 -19 -32 -10 -35 6 -3 12 -10 12 -17 0 -6 9 -18 20 -26 21 -15
27 -40 10 -40 -5 0 -10 -7 -10 -15 0 -9 -7 -27 -16 -40 -14 -22 -14 -27 0 -56
19 -38 20 -61 4 -77 -9 -9 -8 -12 4 -12 9 0 18 10 21 22 4 12 9 20 12 16 3 -3
1 -17 -6 -31 -10 -23 -7 -29 35 -71 32 -31 52 -43 63 -39 11 4 14 3 9 -5 -4
-7 -29 -12 -55 -12 -26 0 -82 -3 -124 -6 -70 -6 -77 -9 -77 -28 0 -12 4 -16 8
-11 9 12 72 14 72 1 0 -4 7 -3 15 4 13 11 15 8 15 -13 l0 -26 135 0 135 1 0
574 0 574 -32 -1 c-18 -1 -43 -4 -55 -6z m-363 -143 c0 -5 -2 -10 -4 -10 -3 0
-8 5 -11 10 -3 6 -1 10 4 10 6 0 11 -4 11 -10z m75 -35 c11 -1 23 -3 28 -4 4
0 7 -6 7 -12 0 -8 -11 -9 -31 -5 -18 3 -38 1 -45 -5 -11 -9 -14 -6 -14 16 0
22 3 26 18 20 9 -4 26 -8 37 -10z m-9 -50 c-4 -10 1 -15 14 -15 11 0 20 -4 20
-10 0 -5 -7 -7 -16 -3 -10 4 -17 -1 -21 -16 -3 -11 -9 -21 -14 -21 -11 0 -8
51 4 68 13 17 20 15 13 -3z m84 -95 c0 -5 -4 -10 -10 -10 -5 0 -10 5 -10 10 0
6 5 10 10 10 6 0 10 -4 10 -10z m131 -693 c-10 -9 -11 -8 -5 6 3 10 9 15 12
12 3 -3 0 -11 -7 -18z m94 -26 c-3 -6 -11 -11 -17 -11 -6 0 -6 6 2 15 14 17
26 13 15 -4z"/>
<path d="M1506 1755 c-9 -14 -12 -25 -7 -25 12 0 35 39 28 46 -2 3 -12 -7 -21
-21z"/>
<path d="M2265 1770 c-3 -5 -1 -10 4 -10 6 0 11 5 11 10 0 6 -2 10 -4 10 -3 0
-8 -4 -11 -10z"/>
<path d="M1631 1755 c-1 -12 -5 -25 -10 -30 -10 -11 -25 -75 -18 -75 9 0 39
100 34 113 -3 6 -6 3 -6 -8z"/>
<path d="M1195 1751 c-3 -5 -1 -12 5 -16 5 -3 10 1 10 9 0 18 -6 21 -15 7z"/>
<path d="M2446 1744 c-4 -10 -1 -14 6 -12 15 5 23 28 10 28 -5 0 -13 -7 -16
-16z"/>
<path d="M1408 1743 c6 -2 18 -2 25 0 6 3 1 5 -13 5 -14 0 -19 -2 -12 -5z"/>
<path d="M1213 1722 c-10 -6 -10 -17 -2 -47 6 -22 13 -42 15 -44 1 -2 14 9 27
25 23 27 24 30 8 51 -17 24 -29 27 -48 15z"/>
<path d="M1580 1678 c0 -19 2 -20 10 -8 13 19 13 30 0 30 -5 0 -10 -10 -10
-22z"/>
<path d="M770 1665 c-8 -9 -8 -15 -2 -15 12 0 26 19 19 26 -2 2 -10 -2 -17
-11z"/>
<path d="M1327 1653 c-4 -3 -7 -11 -7 -17 0 -6 5 -5 12 2 6 6 9 14 7 17 -3 3
-9 2 -12 -2z"/>
<path d="M1369 1613 c-13 -16 -12 -17 4 -4 16 13 21 21 13 21 -2 0 -10 -8 -17
-17z"/>
<path d="M13 1603 c-18 -6 -19 -718 -1 -729 7 -4 8 -3 4 5 -5 7 3 20 18 32 15
11 23 25 20 30 -3 6 2 16 12 23 12 9 14 15 5 20 -9 6 -6 13 9 26 13 11 17 21
10 25 -6 3 -8 11 -5 16 4 5 2 9 -3 9 -5 0 -12 9 -15 20 -3 11 -2 18 3 15 4 -3
10 5 13 16 4 14 10 18 19 14 7 -4 6 0 -3 10 -14 15 -15 21 -4 44 21 42 34 91
25 91 -30 0 -1 111 32 123 7 2 0 8 -15 12 -21 6 -26 12 -22 26 4 11 2 19 -4
19 -6 0 -8 7 -5 15 4 8 3 23 -1 33 -5 9 -9 23 -9 31 -1 8 -7 16 -15 19 -8 3
-11 0 -7 -6 4 -6 -2 -8 -15 -5 -25 7 -37 32 -20 42 15 10 -8 30 -26 24z"/>
<path d="M1233 1595 c-8 -22 6 -33 17 -15 13 20 12 30 0 30 -6 0 -13 -7 -17
-15z"/>
<path d="M1203 1535 c4 -25 16 -54 27 -65 11 -11 18 -25 14 -31 -3 -6 3 -5 15
3 21 13 21 13 -4 28 -14 8 -25 21 -25 30 0 13 1 13 10 0 8 -12 10 -11 10 6 0
12 -7 27 -15 34 -8 7 -15 19 -15 26 0 8 -5 14 -11 14 -8 0 -10 -14 -6 -45z"/>
<path d="M1735 1553 c-5 -12 -9 -14 -12 -5 -10 26 -23 10 -23 -28 0 -22 -5
-40 -11 -40 -6 0 3 -13 19 -30 36 -35 42 -37 42 -10 0 11 7 20 15 20 20 0 19
13 -3 29 -14 10 -18 23 -15 47 4 37 -1 44 -12 17z"/>
<path d="M1515 1530 c-3 -5 1 -10 9 -10 8 0 18 5 21 10 3 6 -1 10 -9 10 -8 0
-18 -4 -21 -10z"/>
<path d="M927 1510 c3 -11 9 -20 14 -20 11 0 11 3 3 24 -9 23 -23 20 -17 -4z"/>
<path d="M765 1491 c-6 -11 35 -54 43 -46 4 4 -2 11 -13 17 -19 11 -19 11 0
18 18 6 17 7 -3 12 -12 4 -24 3 -27 -1z"/>
<path d="M1391 1486 c-9 -11 -6 -12 14 -8 14 2 25 8 25 13 0 14 -26 11 -39 -5z"/>
<path d="M880 1473 c8 -3 22 -11 30 -17 13 -10 13 -9 1 7 -7 9 -21 17 -30 16
-13 0 -14 -1 -1 -6z"/>
<path d="M994 1455 c-4 -8 -10 -12 -15 -9 -15 9 -10 -13 6 -26 13 -11 14 -10
8 6 -6 17 -5 17 10 5 11 -9 17 -10 17 -2 0 6 -5 11 -11 11 -8 0 -8 5 1 15 9
11 9 15 1 15 -6 0 -14 -7 -17 -15z"/>
<path d="M1757 1425 c-3 -20 3 -31 27 -50 16 -13 32 -23 33 -21 4 3 -47 96
-52 96 -1 0 -5 -11 -8 -25z"/>
<path d="M854 1425 c11 -8 22 -12 25 -9 6 6 -19 24 -34 24 -5 -1 -1 -7 9 -15z"/>
<path d="M966 1407 c3 -10 9 -15 12 -12 3 3 0 11 -7 18 -10 9 -11 8 -5 -6z"/>
<path d="M1274 1391 c17 -17 26 -31 20 -32 -5 0 0 -4 11 -8 23 -9 45 -4 45 11
0 6 -6 8 -14 5 -8 -3 -22 3 -32 15 -11 11 -28 25 -39 30 -14 8 -12 2 9 -21z"/>
<path d="M1516 1411 c-3 -4 -20 -11 -38 -15 -25 -5 -29 -9 -19 -16 9 -5 23 -4
35 3 12 7 27 12 35 12 8 0 16 6 19 13 4 14 -24 17 -32 3z"/>
<path d="M1030 1381 c0 -5 5 -13 10 -16 6 -3 10 -2 10 4 0 5 -4 13 -10 16 -5
3 -10 2 -10 -4z"/>
<path d="M720 1370 c0 -5 5 -10 11 -10 5 0 7 5 4 10 -3 6 -8 10 -11 10 -2 0
-4 -4 -4 -10z"/>
<path d="M990 1370 c0 -18 62 -166 70 -168 6 -2 7 -9 4 -14 -4 -7 -2 -8 4 -4
7 4 0 33 -24 89 -30 70 -54 113 -54 97z"/>
<path d="M960 1342 c6 -13 14 -21 18 -18 3 4 -2 14 -12 24 -18 16 -18 16 -6
-6z"/>
<path d="M1410 1310 c19 -13 30 -13 30 0 0 6 -10 10 -22 10 -19 0 -20 -2 -8
-10z"/>
<path d="M1001 1269 c-1 -9 6 -32 14 -50 10 -23 14 -28 14 -14 0 25 -27 86
-28 64z"/>
<path d="M1758 1270 c-6 -19 2 -50 13 -50 13 0 22 22 12 29 -6 3 -12 13 -15
21 -4 13 -5 13 -10 0z"/>
<path d="M780 1260 c0 -5 5 -10 11 -10 5 0 7 5 4 10 -3 6 -8 10 -11 10 -2 0
-4 -4 -4 -10z"/>
<path d="M1147 1256 c-4 -9 -2 -16 3 -16 5 0 15 -7 24 -15 8 -8 17 -11 20 -7
3 5 -5 19 -18 31 -20 19 -24 20 -29 7z"/>
<path d="M1890 1231 c0 -25 6 -27 13 -6 4 8 2 17 -3 20 -6 4 -10 -3 -10 -14z"/>
<path d="M800 1232 c0 -10 41 -24 49 -17 6 7 0 11 -26 19 -13 4 -23 3 -23 -2z"/>
<path d="M767 1214 c6 -15 23 -19 23 -5 0 5 -7 11 -14 14 -10 4 -13 1 -9 -9z"/>
<path d="M1220 1220 c-10 -6 -15 -27 -15 -64 0 -47 2 -53 15 -43 8 6 17 13 19
14 2 1 -2 9 -9 18 -10 12 -10 21 0 45 14 35 11 43 -10 30z"/>
<path d="M2300 1200 c0 -5 5 -10 10 -10 6 0 10 5 10 10 0 6 -4 10 -10 10 -5 0
-10 -4 -10 -10z"/>
<path d="M770 1181 c0 -5 7 -11 15 -15 8 -3 15 -1 15 3 0 5 -7 11 -15 15 -8 3
-15 1 -15 -3z"/>
<path d="M1132 1155 c6 -14 13 -23 16 -21 7 7 -9 46 -18 46 -5 0 -4 -11 2 -25z"/>
<path d="M1162 1160 c0 -14 2 -19 5 -12 2 6 2 18 0 25 -3 6 -5 1 -5 -13z"/>
<path d="M1826 1171 c-4 -5 -1 -13 5 -16 5 -4 8 -13 5 -21 -3 -8 1 -14 8 -14
9 0 12 8 8 25 -5 28 -18 40 -26 26z"/>
<path d="M1900 1166 c0 -2 7 -7 16 -10 8 -3 12 -2 9 4 -6 10 -25 14 -25 6z"/>
<path d="M735 1130 c9 -30 52 -90 65 -90 6 0 -7 24 -27 53 -47 67 -47 66 -38
37z"/>
<path d="M1070 1123 c-13 -15 -12 -16 4 -10 10 4 20 7 22 7 2 0 4 5 4 10 0 15
-13 12 -30 -7z"/>
<path d="M2001 1059 c-30 -27 -60 -49 -65 -49 -6 0 -30 -19 -53 -43 -34 -34
-43 -51 -48 -93 -6 -42 -4 -52 9 -57 9 -4 16 -2 16 3 0 6 -4 10 -10 10 -5 0
-7 7 -4 15 3 8 26 17 50 21 24 3 44 10 44 15 0 5 -7 6 -15 3 -8 -4 -15 -1 -15
5 0 6 7 11 15 11 8 0 15 5 15 10 0 15 -16 12 -30 -5 -7 -8 -18 -15 -24 -15 -6
0 4 13 22 29 19 17 28 31 20 33 -6 2 16 21 50 42 46 28 62 43 62 60 0 12 5 27
12 34 6 6 10 14 7 16 -2 2 -28 -18 -58 -45z"/>
<path d="M1361 1081 c0 -7 -7 -11 -16 -7 -17 6 -21 -9 -4 -20 6 -3 8 -18 5
-33 l-6 -26 16 28 c8 16 13 38 11 50 -2 12 -5 16 -6 8z"/>
<path d="M1090 1068 c0 -9 4 -19 9 -22 4 -3 11 -21 14 -40 7 -46 35 -76 71
-76 16 0 27 3 24 6 -4 3 -2 19 2 35 5 18 5 27 -1 24 -5 -4 -9 0 -9 7 0 9 -12
13 -35 13 -38 -2 -42 3 -22 24 10 11 9 13 -5 8 -11 -4 -23 2 -33 16 -12 17
-15 18 -15 5z"/>
<path d="M605 1031 c3 -11 -1 -26 -11 -36 -16 -16 -19 -16 -29 -1 -14 19 -22
12 -41 -33 -9 -22 -14 -73 -14 -152 l0 -119 -32 0 c-18 0 -89 -2 -158 -4 -69
-2 -169 -4 -222 -5 l-98 -1 0 -46 0 -47 38 6 c20 4 135 9 255 13 l217 7 0 -36
c0 -20 -4 -39 -10 -42 -5 -3 -10 -3 -10 2 0 9 -62 9 -77 0 -6 -4 -37 -7 -69
-8 -65 -2 -94 -15 -94 -41 0 -10 -4 -18 -10 -18 -5 0 -7 6 -4 14 7 17 -11 29
-47 31 -25 2 -26 0 -16 -24 6 -14 14 -30 19 -35 13 -15 9 -26 -7 -26 -13 0
-14 -4 -5 -20 6 -11 7 -20 1 -20 -5 0 -12 -7 -15 -16 -5 -14 -4 -15 9 -4 13
11 14 10 9 -4 -5 -12 -2 -15 11 -10 10 4 15 14 12 25 -6 21 9 26 16 7 3 -10 8
-10 17 -2 9 9 9 17 -1 35 -11 22 -11 23 5 10 14 -12 16 -12 10 4 -6 13 -4 16
5 10 8 -4 17 -2 23 6 8 11 9 10 4 -3 -4 -13 0 -18 17 -19 12 0 16 -3 10 -6
-18 -7 -16 -63 3 -84 13 -14 13 -21 3 -37 -7 -12 -21 -23 -31 -25 -10 -3 -18
-9 -17 -14 1 -4 1 -17 0 -27 -2 -36 -15 -6 -14 32 l1 37 -8 -33 c-8 -34 -20
-54 -20 -34 0 7 -7 12 -15 12 -8 0 -12 6 -9 14 3 8 1 17 -5 21 -16 9 -13 25 3
19 7 -3 16 2 19 10 5 12 0 16 -17 16 -14 0 -26 -5 -28 -11 -3 -8 -9 -6 -20 4
-14 15 -16 14 -16 -9 1 -19 4 -23 19 -19 11 4 19 2 19 -4 0 -6 -4 -11 -10 -11
-5 0 -10 -5 -10 -11 0 -6 7 -8 16 -5 10 4 14 1 12 -6 -3 -7 -10 -13 -16 -13
-5 0 -13 -3 -17 -7 -4 -4 -13 -4 -20 -2 -7 3 -15 -2 -18 -10 -4 -9 -12 -16
-19 -16 -9 0 -8 3 2 10 9 6 11 10 3 10 -7 0 -10 7 -7 15 7 18 -7 20 -25 3 -8
-7 -11 -8 -8 -3 3 6 2 17 -3 24 -6 11 -11 9 -20 -8 -7 -15 -17 -20 -27 -17
-13 5 -14 4 -4 -8 8 -10 9 -16 1 -21 -5 -3 -10 -12 -10 -19 0 -10 13 -12 48
-10 98 7 421 9 427 2 4 -3 9 -35 12 -70 6 -60 5 -62 -12 -45 -16 16 -19 16
-35 2 -9 -8 -20 -12 -23 -9 -4 4 -14 1 -23 -6 -9 -9 -18 -10 -22 -4 -9 12 -67
12 -79 0 -4 -5 -3 -6 3 -3 6 3 20 -5 32 -18 19 -21 19 -24 4 -28 -9 -3 3 -5
28 -5 27 0 38 2 27 6 -16 7 -16 9 4 26 13 11 20 13 17 4 -11 -33 16 -37 286
-38 l266 -1 0 34 c0 33 24 67 48 67 19 0 2 28 -21 34 l-21 5 23 25 c21 23 26
24 44 11 18 -13 24 -11 61 19 23 18 56 42 74 52 23 13 32 24 28 37 -3 14 -1
16 8 7 10 -7 17 -6 27 6 8 10 14 20 13 23 0 3 10 14 23 24 28 23 31 7 3 -18
-11 -10 -20 -25 -19 -34 0 -13 2 -14 6 -1 4 8 29 38 57 66 71 72 101 114 82
114 -8 0 -20 -8 -25 -17 -6 -10 -11 -15 -11 -10 0 12 -80 -44 -80 -56 0 -6 -7
-4 -16 5 -16 16 -12 38 8 38 6 0 5 -7 -3 -17 -12 -14 -10 -14 14 1 31 21 35
28 10 19 -16 -6 -16 -5 -4 10 7 9 23 17 35 17 11 0 41 16 65 35 30 24 51 34
65 30 12 -3 16 -2 9 1 -9 4 -9 10 -2 22 8 13 22 16 55 14 l44 -4 -4 33 c-2 19
-4 45 -5 59 l-2 25 -15 -28 c-8 -15 -19 -25 -23 -22 -19 11 30 175 52 175 6 0
7 3 4 6 -4 4 -13 1 -21 -5 -8 -7 -20 -10 -26 -6 -6 4 -10 -4 -10 -19 0 -16
-14 -40 -37 -63 l-38 -38 -5 35 -6 35 -7 -37 c-4 -21 -13 -40 -19 -44 -7 -5
-9 0 -6 14 4 12 2 22 -3 22 -5 0 -10 10 -10 23 -1 13 -4 8 -8 -13 -6 -35 -36
-51 -36 -20 0 22 -29 72 -55 95 l-23 20 12 -22 c6 -12 16 -25 21 -28 6 -3 10
-12 10 -18 0 -7 -4 -6 -10 3 -13 21 -23 5 -11 -18 13 -25 14 -69 2 -74 -5 -2
-7 -18 -3 -37 7 -30 9 -32 21 -17 7 9 18 16 23 16 5 0 16 7 24 15 9 8 27 15
41 15 23 0 25 -3 20 -30 -5 -23 -3 -30 9 -30 8 0 12 -5 9 -10 -10 -16 -125
-71 -125 -60 0 26 -60 6 -108 -37 -14 -12 -31 -19 -39 -16 -9 4 -11 0 -7 -13
6 -16 4 -17 -6 -7 -23 21 -20 42 12 74 18 17 31 40 31 55 0 20 2 22 14 13 8
-7 12 -18 9 -26 -3 -8 2 -13 15 -13 18 0 19 5 14 78 -3 42 -9 91 -15 107 l-10
30 5 -32 c5 -34 -11 -55 -21 -29 -3 9 -12 16 -20 16 -7 0 -20 10 -28 22 -16
23 -19 19 -17 -17 2 -20 2 -20 -14 0 -8 11 -13 25 -11 32 6 16 0 20 -47 27
-21 3 -51 13 -67 21 -37 19 -46 19 -29 -1 19 -23 89 -56 108 -51 12 3 17 -3
19 -19 2 -21 -1 -22 -61 -16 -73 6 -115 30 -184 103 -26 28 -82 83 -123 123
-40 39 -85 81 -98 94 -21 20 -23 21 -17 3z m5 -137 c0 -27 -15 -32 -24 -9 -7
19 3 47 15 39 5 -3 9 -16 9 -30z m240 -136 c0 -4 -7 -8 -15 -8 -10 0 -15 10
-15 28 1 26 1 26 15 8 8 -11 15 -23 15 -28z m-35 -48 c-21 -41 -19 -47 7 -14
12 16 27 32 32 36 13 9 35 -2 31 -15 -3 -7 2 -21 10 -31 15 -19 15 -19 29 -1
12 17 18 18 40 7 14 -6 26 -16 26 -21 0 -15 -28 -33 -46 -29 -17 3 -17 4 0 21
26 25 2 21 -29 -6 -21 -18 -25 -28 -20 -50 5 -17 14 -27 25 -27 10 0 26 -3 36
-7 12 -4 15 -2 12 8 -3 8 -14 13 -26 11 -12 -2 -22 0 -22 5 0 4 -3 19 -7 33
-6 24 -6 24 14 8 20 -19 43 -24 43 -10 0 4 10 8 22 9 12 1 30 12 40 25 10 13
18 18 18 13 0 -6 16 -15 35 -21 32 -10 37 -9 51 10 10 14 17 17 22 10 4 -6 18
-15 31 -19 17 -5 20 -9 11 -15 -8 -5 -19 -2 -27 6 -8 8 -18 12 -23 9 -9 -6 4
-60 19 -79 7 -8 1 -17 -20 -31 -16 -11 -29 -23 -29 -27 0 -5 -7 -8 -15 -8 -8
0 -15 -3 -15 -7 0 -5 -14 -16 -30 -25 -20 -11 -30 -25 -30 -40 0 -13 -3 -18
-8 -12 -4 6 -17 13 -29 16 -21 6 -22 5 -8 -15 18 -26 19 -38 3 -34 -7 1 -15
-13 -18 -33 l-5 -35 -19 31 c-18 30 -82 71 -94 60 -2 -3 6 -10 19 -15 13 -5
35 -21 49 -36 l25 -28 -27 7 c-37 9 -36 -8 1 -24 16 -6 38 -21 48 -32 18 -20
18 -20 25 4 7 23 8 23 4 -2 -2 -14 -7 -33 -11 -44 -7 -16 -6 -17 13 -7 26 14
42 14 42 1 0 -5 -9 -10 -21 -10 -11 0 -17 -4 -14 -10 24 -39 -118 55 -194 129
-31 30 -60 50 -68 47 -8 -3 -11 -1 -8 4 10 16 -26 24 -46 11 -15 -8 -19 -8
-19 1 0 16 31 48 47 48 8 0 13 12 14 33 l1 32 10 -27 c10 -30 15 -33 37 -19
11 7 10 11 -4 19 -12 6 -16 17 -12 31 4 18 3 20 -9 10 -18 -15 -18 0 0 20 8 9
19 43 25 75 10 53 33 106 46 106 3 0 -1 -13 -10 -30z m-346 -56 c-7 -8 -18
-13 -24 -10 -7 2 -18 -1 -25 -7 -10 -9 -11 -9 -8 3 3 8 14 16 26 18 12 2 22 8
22 13 0 6 5 7 10 4 8 -5 7 -11 -1 -21z m848 -6 c-3 -8 -6 -5 -6 6 -1 11 2 17
5 13 3 -3 4 -12 1 -19z m-807 -8 c0 -5 -4 -10 -10 -10 -5 0 -10 5 -10 10 0 6
5 10 10 10 6 0 10 -4 10 -10z m686 -32 c-10 -6 -22 -6 -26 -2 -5 5 3 10 18 11
22 1 24 0 8 -9z m89 -118 c-3 -5 -10 -10 -15 -10 -14 0 -81 -42 -76 -47 2 -3
14 0 25 7 15 7 21 7 21 0 0 -17 -42 -29 -56 -16 -22 20 41 70 94 75 7 0 10 -3
7 -9z m30 -15 c-22 -14 -46 -25 -54 -25 -18 0 -15 3 34 29 55 29 69 26 20 -4z
m-995 1 c0 -3 -4 -8 -10 -11 -5 -3 -10 -1 -10 4 0 6 5 11 10 11 6 0 10 -2 10
-4z m97 -48 c-3 -8 -6 -5 -6 6 -1 11 2 17 5 13 3 -3 4 -12 1 -19z m687 -15 c4
-9 3 -20 -2 -25 -11 -11 -36 17 -27 32 9 15 22 12 29 -7z m-771 -13 c-10 -11
-19 -20 -21 -20 -1 0 2 9 8 20 6 11 15 20 20 20 6 0 2 -9 -7 -20z m997 -15
c-7 -8 -17 -15 -23 -15 -5 0 -2 9 8 20 21 23 35 19 15 -5z m-950 -2 c0 -10 -4
-14 -8 -8 -4 6 -11 13 -16 18 -5 4 -2 7 7 7 10 0 17 -8 17 -17z m70 6 c0 -3
-9 -9 -21 -12 -12 -3 -18 -10 -14 -16 3 -6 1 -11 -4 -11 -14 0 -14 6 0 28 11
18 39 26 39 11z m756 -4 c-3 -22 -74 -78 -87 -69 -8 5 -4 13 12 26 20 15 21
17 4 12 -11 -4 -26 -14 -33 -23 -11 -14 -14 -14 -22 -1 -7 11 -3 17 13 24 12
5 42 16 67 26 25 10 46 19 47 19 1 1 0 -6 -1 -14z m43 -28 c0 -12 -3 -16 -6
-10 -3 9 -14 6 -36 -11 -57 -41 -63 -39 -17 5 48 47 60 51 59 16z m-919 3 c0
-5 -5 -10 -11 -10 -5 0 -7 5 -4 10 3 6 8 10 11 10 2 0 4 -4 4 -10z m-18 -112
c-7 -7 -12 -8 -12 -2 0 6 3 14 7 17 3 4 9 5 12 2 2 -3 -1 -11 -7 -17z m-262
-8 c0 -5 -5 -10 -11 -10 -5 0 -7 5 -4 10 3 6 8 10 11 10 2 0 4 -4 4 -10z m130
-14 c0 -3 -4 -8 -10 -11 -5 -3 -10 -1 -10 4 0 6 5 11 10 11 6 0 10 -2 10 -4z
m747 -18 c62 -16 69 -21 46 -39 -9 -8 -14 -9 -10 -3 4 7 -1 14 -11 17 -9 2
-26 8 -36 13 -13 5 -17 4 -13 -4 14 -22 -29 -17 -50 7 -13 13 -23 26 -23 29 0
2 10 2 23 -1 12 -3 45 -12 74 -19z m-107 -18 c0 -5 -2 -10 -4 -10 -3 0 -8 5
-11 10 -3 6 -1 10 4 10 6 0 11 -4 11 -10z m-251 -82 c-2 -2 -17 -14 -34 -28
l-30 -25 24 28 c14 15 29 27 34 27 6 0 8 -1 6 -2z m-137 -80 c-7 -7 -12 -8
-12 -2 0 14 12 26 19 19 2 -3 -1 -11 -7 -17z"/>
<path d="M845 710 c-30 -33 -1 -92 34 -71 13 9 5 61 -10 61 -5 0 -6 7 -3 15 8
21 1 19 -21 -5z"/>
<path d="M854 601 c4 -5 2 -20 -2 -33 -10 -26 -5 -51 9 -42 5 3 9 14 9 25 0
11 5 17 10 14 6 -4 8 -11 5 -16 -4 -5 3 -9 15 -9 23 0 20 10 -14 47 -21 22
-43 32 -32 14z"/>
<path d="M777 536 c-7 -19 11 -32 24 -19 6 6 5 14 -4 22 -12 9 -16 8 -20 -3z"/>
<path d="M870 504 c0 -8 5 -12 10 -9 6 3 10 10 10 16 0 5 -4 9 -10 9 -5 0 -10
-7 -10 -16z"/>
<path d="M796 459 c3 -5 14 -14 24 -19 16 -8 18 -7 14 4 -3 8 -14 16 -25 19
-10 3 -17 1 -13 -4z"/>
<path d="M973 1039 c-34 -10 -48 -36 -38 -70 6 -18 12 -20 43 -14 32 6 34 5
23 -9 -20 -24 -8 -20 48 17 50 34 51 34 31 52 -12 11 -20 14 -20 6 0 -7 -4 -9
-10 -6 -12 8 -67 -21 -60 -32 3 -4 -5 -9 -17 -11 -18 -3 -23 2 -23 17 0 16 6
21 25 21 14 0 29 8 35 20 12 22 10 22 -37 9z m97 -49 c-20 -13 -33 -13 -25 0
3 6 14 10 23 10 15 0 15 -2 2 -10z"/>
<path d="M1160 1030 c0 -5 5 -10 10 -10 6 0 10 5 10 10 0 6 -4 10 -10 10 -5 0
-10 -4 -10 -10z"/>
<path d="M2066 1015 c4 -8 11 -15 16 -15 6 0 5 6 -2 15 -7 8 -14 15 -16 15 -2
0 -1 -7 2 -15z"/>
<path d="M2055 970 c-3 -5 -1 -10 4 -10 6 0 11 5 11 10 0 6 -2 10 -4 10 -3 0
-8 -4 -11 -10z"/>
<path d="M1584 931 c-38 -34 -40 -36 -17 -35 29 1 66 35 61 57 -2 11 -13 6
-44 -22z"/>
<path d="M1950 960 c0 -5 7 -10 15 -10 11 0 14 -7 9 -25 -9 -35 2 -31 15 5 5
17 6 28 1 25 -5 -3 -11 -1 -15 5 -8 13 -25 13 -25 0z"/>
<path d="M1265 930 c-3 -6 1 -7 9 -4 18 7 21 14 7 14 -6 0 -13 -4 -16 -10z"/>
<path d="M2120 914 c0 -14 3 -14 15 -4 8 7 15 14 15 16 0 2 -7 4 -15 4 -8 0
-15 -7 -15 -16z"/>
<path d="M2127 883 c-4 -3 -7 -11 -7 -17 0 -6 5 -5 12 2 6 6 9 14 7 17 -3 3
-9 2 -12 -2z"/>
<path d="M970 868 c0 -12 49 -29 62 -22 7 5 8 2 3 -5 -5 -9 -2 -12 11 -9 10 2
27 -5 37 -15 16 -16 43 -21 36 -7 -1 3 3 16 11 30 l13 25 -28 -25 c-26 -24
-27 -24 -21 -3 7 22 -6 26 -31 10 -7 -5 -13 -4 -13 0 0 5 -18 14 -40 20 -22 5
-40 6 -40 1z"/>
<path d="M1530 868 c0 -14 18 -17 28 -5 8 10 6 13 -9 13 -10 0 -19 -4 -19 -8z"/>
<path d="M2195 871 c-3 -5 -1 -12 4 -15 5 -3 11 1 15 9 6 16 -9 21 -19 6z"/>
<path d="M2 848 c2 -6 10 -14 16 -16 7 -2 10 2 6 12 -7 18 -28 22 -22 4z"/>
<path d="M1699 828 c-17 -24 -18 -29 -6 -19 18 14 42 51 33 51 -3 0 -15 -15
-27 -32z"/>
<path d="M1360 823 c-24 -12 -24 -13 -3 -13 12 0 25 5 28 11 11 16 2 17 -25 2z"/>
<path d="M1765 820 c-10 -11 -16 -22 -13 -25 3 -3 13 4 23 15 10 11 16 22 13
25 -3 3 -13 -4 -23 -15z"/>
<path d="M2114 806 c-9 -15 -14 -29 -11 -32 3 -3 13 6 23 20 9 15 14 29 11 32
-3 3 -13 -6 -23 -20z"/>
<path d="M1816 793 c-6 -14 -5 -15 5 -6 7 7 10 15 7 18 -3 3 -9 -2 -12 -12z"/>
<path d="M2166 801 c-4 -6 -3 -11 3 -11 6 0 8 -7 5 -15 -4 -8 -1 -15 5 -15 13
0 14 20 2 39 -6 9 -11 10 -15 2z"/>
<path d="M2196 764 c-8 -21 -8 -24 3 -24 5 0 11 9 14 20 6 24 -8 27 -17 4z"/>
<path d="M1166 741 c-3 -5 1 -11 9 -14 9 -4 12 -1 8 9 -6 16 -10 17 -17 5z"/>
<path d="M1690 695 c0 -36 3 -46 10 -35 5 8 10 24 10 35 0 11 -5 27 -10 35 -7
11 -10 1 -10 -35z"/>
<path d="M2090 720 c0 -5 5 -10 10 -10 6 0 10 5 10 10 0 6 -4 10 -10 10 -5 0
-10 -4 -10 -10z"/>
<path d="M1990 711 c0 -5 7 -15 17 -22 15 -13 15 -12 4 9 -12 23 -21 28 -21
13z"/>
<path d="M2140 694 c-6 -14 -10 -30 -10 -35 0 -5 -5 -9 -11 -9 -5 0 -8 3 -6 8
3 4 1 16 -4 27 -6 17 -8 17 -8 3 -1 -10 -5 -18 -10 -18 -5 0 -11 -10 -14 -22
-4 -12 -9 -19 -13 -15 -11 11 -43 -46 -33 -59 5 -7 3 -11 -6 -11 -8 0 -15 7
-15 15 0 22 -24 8 -31 -19 -5 -17 -7 -19 -8 -6 -1 18 -3 18 -36 -2 -28 -16
-35 -17 -35 -6 0 8 6 15 14 15 15 0 32 37 22 47 -3 4 -16 -6 -29 -21 -13 -15
-31 -28 -39 -30 -24 -3 -48 -26 -48 -46 0 -27 26 -31 54 -9 14 11 26 17 26 13
0 -4 8 0 18 8 38 33 45 30 15 -5 -38 -43 -40 -52 -15 -66 16 -9 15 -11 -7 -28
-14 -10 -45 -38 -70 -62 -25 -24 -61 -50 -80 -58 -18 -8 -31 -16 -28 -19 8 -8
-48 -58 -87 -77 -47 -22 -53 -21 -66 3 -9 16 -8 18 5 14 9 -4 26 6 44 25 17
18 32 27 36 21 9 -14 28 -12 22 3 -5 17 23 36 56 37 19 0 42 15 78 50 28 28
49 54 45 57 -3 3 -1 12 5 20 6 7 8 13 5 13 -11 0 -49 -22 -63 -35 -30 -30
-226 -136 -234 -128 -6 6 14 22 53 43 98 52 179 112 173 128 -3 10 0 12 10 8
8 -3 15 -1 15 4 0 18 -21 21 -44 7 -21 -14 -25 -14 -39 1 -23 22 -34 7 -13
-17 23 -25 17 -33 -36 -56 -24 -11 -47 -25 -51 -33 -5 -7 -32 -24 -61 -38 -45
-21 -57 -23 -82 -13 l-29 11 55 22 c78 31 122 55 115 66 -3 5 8 19 24 31 32
23 32 44 0 36 -18 -5 -19 2 -21 86 l-1 92 -6 -68 c-4 -44 -11 -71 -21 -77 -13
-8 -12 -10 3 -10 13 0 17 -8 17 -34 0 -19 -4 -38 -10 -41 -5 -3 -10 1 -10 9 0
8 -5 18 -12 22 -7 4 -8 3 -4 -4 11 -18 -11 -49 -40 -56 -36 -9 -59 0 -72 30
-15 32 -15 34 2 34 8 0 16 7 20 15 6 18 36 9 36 -11 0 -8 -6 -11 -15 -8 -17 7
-21 -11 -5 -21 18 -11 40 15 40 46 0 22 -6 32 -26 39 -34 13 -37 13 -30 -5 3
-9 0 -15 -8 -15 -7 0 -20 -8 -29 -17 -14 -16 -14 -23 -1 -58 16 -45 11 -85
-11 -85 -14 0 -85 -38 -85 -46 0 -2 11 1 24 6 18 7 26 5 30 -6 3 -8 10 -14 16
-14 6 0 8 5 5 10 -7 12 25 13 43 1 10 -6 -9 -20 -62 -46 -42 -22 -74 -40 -72
-42 2 -2 38 10 80 27 84 33 96 35 96 19 0 -6 -6 -9 -12 -6 -7 2 -22 -4 -33
-14 -11 -10 -64 -36 -118 -57 -88 -36 -134 -59 -99 -50 11 2 24 -11 39 -40 1
-2 10 5 21 15 44 39 50 43 54 31 3 -7 12 -9 22 -5 18 7 18 8 0 28 -17 19 -17
20 2 13 10 -4 22 -12 26 -18 4 -6 14 -4 26 8 11 9 35 18 53 19 51 3 48 -23 -6
-52 -25 -13 -45 -28 -45 -33 0 -5 -4 -6 -10 -3 -5 3 -10 2 -10 -4 0 -9 -104
-65 -125 -67 -5 -1 -21 -6 -35 -11 -19 -8 5 -11 102 -11 70 0 126 3 124 7 -2
3 2 12 10 19 8 7 14 11 14 8 0 -3 12 1 27 9 15 8 31 11 36 8 6 -3 7 -1 3 5 -7
11 76 72 98 72 8 0 16 9 19 20 3 11 4 20 2 20 -7 0 -54 -28 -95 -56 -54 -37
-110 -67 -116 -61 -2 2 32 26 76 53 43 27 80 54 80 60 0 20 73 76 93 70 15 -4
18 0 14 14 -5 20 28 58 40 46 8 -8 -35 -87 -56 -103 -9 -6 -13 -15 -8 -19 4
-4 7 -2 7 4 0 7 5 12 11 12 20 0 -61 -87 -126 -135 -36 -26 -63 -50 -60 -54 3
-3 11 1 16 9 8 11 12 12 16 3 9 -23 38 -14 69 20 37 40 103 122 133 165 13 18
25 31 28 29 7 -7 -107 -188 -122 -193 -8 -3 -16 -12 -19 -20 -4 -10 3 -14 23
-14 20 0 31 7 39 26 7 14 17 22 22 19 6 -3 10 1 10 10 0 8 6 18 14 21 8 3 12
12 10 19 -3 7 4 20 16 28 12 8 18 20 15 29 -3 8 1 21 10 28 8 7 15 10 15 6 0
-3 8 1 19 10 10 9 17 24 14 33 -4 17 76 225 84 217 6 -6 -47 -206 -63 -238 -8
-15 -19 -28 -24 -28 -5 0 -7 -7 -3 -16 3 -8 -5 -26 -18 -42 -13 -14 -16 -20
-6 -13 21 17 22 8 2 -23 -24 -37 -36 -86 -21 -86 15 0 42 55 52 104 5 27 9 34
19 26 9 -7 15 4 25 47 15 71 28 100 47 107 8 3 11 1 8 -4 -3 -6 -1 -10 5 -10
6 0 8 -6 4 -12 -4 -7 2 -5 13 4 11 10 24 18 29 18 5 0 7 22 6 48 -3 36 1 52
14 63 16 13 16 10 10 -46 -3 -33 -6 -73 -6 -89 0 -21 -3 -27 -15 -22 -19 7
-19 -4 0 -18 13 -9 14 -21 6 -66 -5 -30 -12 -76 -15 -102 l-6 -48 145 0 c99 0
152 4 165 12 17 11 22 10 29 -1 7 -11 10 -9 16 8 7 25 18 27 34 7 10 -12 8
-13 -10 -9 -15 4 -20 3 -15 -5 10 -17 53 -15 60 4 3 8 2 12 -4 9 -6 -3 -10 -2
-10 3 0 19 75 38 85 22 3 -5 -1 -10 -11 -10 -13 0 -14 -3 -5 -14 10 -11 8 -15
-6 -18 -10 -3 1 -5 24 -6 44 -1 52 11 23 35 -12 10 -12 14 -2 21 10 7 10 11
-3 22 -13 11 -15 10 -10 -3 5 -11 0 -15 -19 -13 -14 0 -24 6 -22 11 5 15 -14
46 -24 40 -4 -3 -7 -16 -5 -30 2 -26 -10 -35 -17 -13 -3 9 -12 8 -31 -5 -30
-20 -41 -22 -31 -6 3 6 0 16 -7 21 -10 6 -6 7 11 2 24 -6 24 -6 7 13 -9 11
-14 23 -10 27 4 4 15 -3 24 -16 15 -20 17 -20 16 -4 -1 13 6 20 22 23 47 7 34
13 -22 10 -31 -2 -59 -1 -62 1 -9 10 -55 11 -55 1 0 -5 -5 -9 -11 -9 -5 0 -7
5 -4 10 3 6 -3 10 -14 10 -12 0 -21 5 -21 11 0 5 6 7 13 3 6 -4 9 -4 5 1 -4 4
-39 8 -77 9 -38 1 -72 4 -76 8 -4 3 -9 19 -11 36 l-5 29 108 7 c59 3 162 9
228 12 66 4 122 8 125 11 2 2 -1 13 -8 23 -15 24 -16 44 -2 35 6 -3 10 -2 10
4 0 18 -21 23 -38 9 -15 -12 -16 -11 -3 5 13 17 7 22 -21 19 -3 -1 -9 5 -12
13 -6 18 -5 18 28 5 17 -6 27 -6 32 2 4 6 3 8 -3 5 -6 -4 -13 -1 -16 7 -4 9
-14 12 -25 9 -11 -2 -23 0 -26 6 -4 6 0 11 8 11 8 0 22 7 30 16 15 14 16 13
16 -6 0 -12 4 -18 11 -15 6 4 7 14 4 24 -15 36 -14 55 3 67 16 12 16 13 0 19
-10 4 -18 14 -18 22 0 10 6 13 16 9 14 -5 15 -4 5 8 -9 11 -9 15 1 19 7 3 -62
4 -155 4 -128 -2 -164 1 -152 9 9 7 26 9 38 6 12 -3 19 -1 15 3 -8 8 -27 8
-131 1 -26 -1 -50 1 -53 6 -3 5 -10 6 -15 3 -5 -4 -3 -13 6 -21 18 -18 19 -30
3 -40 -8 -5 -9 -2 -5 9 3 9 2 19 -3 22 -6 4 -10 -7 -10 -24 0 -16 -4 -33 -10
-36 -6 -4 -10 12 -10 42 0 41 4 50 25 60 14 6 23 7 19 2 -3 -5 0 -9 6 -9 7 0
9 8 5 19 -4 13 2 27 17 42 17 17 19 20 6 16 -10 -4 -18 -2 -18 3 0 20 -21 9
-30 -16z m80 -94 c8 -5 11 -10 5 -10 -5 0 -17 5 -25 10 -8 5 -10 10 -5 10 6 0
17 -5 25 -10z m326 -35 c-3 -8 -1 -15 4 -15 6 0 9 -13 8 -30 -1 -16 -6 -30
-12 -30 -5 0 -15 -8 -22 -17 -13 -17 -13 -17 -14 0 0 9 -7 17 -17 17 -15 0
-15 1 0 18 13 14 14 21 5 30 -9 9 -9 12 0 12 18 0 27 -31 12 -40 -9 -5 -9 -9
-1 -14 18 -11 45 22 32 38 -10 12 -6 46 6 46 3 0 3 -7 -1 -15z m-523 -77 c-3
-16 -10 -28 -15 -28 -6 0 -8 10 -4 23 3 12 6 29 6 37 0 9 3 10 9 5 5 -6 7 -22
4 -37z m87 -67 c0 -10 -3 -12 -10 -5 -6 6 -13 35 -15 65 l-5 54 15 -50 c8 -27
15 -57 15 -64z m355 59 c3 -5 2 -10 -4 -10 -5 0 -13 5 -16 10 -3 6 -2 10 4 10
5 0 13 -4 16 -10z m-40 -30 c-4 -14 -2 -20 8 -20 7 0 14 -7 14 -15 0 -31 -29
-9 -41 33 -6 16 -3 22 9 22 12 0 15 -6 10 -20z m118 5 c-3 -9 -8 -14 -10 -11
-3 3 -2 9 2 15 9 16 15 13 8 -4z m-506 -73 c7 -7 13 -19 12 -25 0 -9 -2 -8 -6
1 -8 21 -23 13 -23 -14 0 -18 4 -25 14 -21 8 3 16 -2 19 -14 6 -23 -6 -25 -23
-4 -10 12 -16 13 -26 4 -17 -14 -18 -6 -2 62 7 28 14 46 17 38 2 -7 10 -20 18
-27z m-498 -8 c-13 -7 -31 -13 -39 -13 -10 0 -11 2 -2 6 6 2 12 10 12 17 0 9
9 12 26 8 l27 -5 -24 -13z m972 9 c7 -10 9 -15 5 -11 -5 4 -15 3 -22 -3 -9 -8
-11 -5 -7 10 6 25 7 25 24 4z m-591 3 c0 -2 -8 -10 -17 -17 -16 -13 -17 -12
-4 4 13 16 21 21 21 13z m-126 -47 c-6 -11 -65 -17 -62 -7 2 5 8 10 13 10 6 0
16 10 24 21 14 20 15 20 22 1 3 -10 5 -22 3 -25z m76 -18 c-11 -21 -30 -37
-30 -25 0 8 30 44 37 44 2 0 -1 -9 -7 -19z m11 -45 c-6 -14 -15 -26 -21 -26
-7 0 -4 13 6 30 21 35 29 33 15 -4z m-256 -16 c-3 -5 -11 -10 -16 -10 -6 0 -7
5 -4 10 3 6 11 10 16 10 6 0 7 -4 4 -10z m655 -110 c0 -5 -2 -10 -4 -10 -3 0
-8 5 -11 10 -3 6 -1 10 4 10 6 0 11 -4 11 -10z m182 -102 c-7 -7 -12 -8 -12
-2 0 14 12 26 19 19 2 -3 -1 -11 -7 -17z m-102 -8 c0 -5 -2 -10 -4 -10 -3 0
-8 5 -11 10 -3 6 -1 10 4 10 6 0 11 -4 11 -10z m-900 -10 c0 -5 -8 -10 -17
-10 -15 0 -16 2 -3 10 19 12 20 12 20 0z"/>
<path d="M1745 690 c-3 -5 -1 -10 4 -10 6 0 11 5 11 10 0 6 -2 10 -4 10 -3 0
-8 -4 -11 -10z"/>
<path d="M2300 680 c0 -5 5 -10 10 -10 6 0 10 5 10 10 0 6 -4 10 -10 10 -5 0
-10 -4 -10 -10z"/>
<path d="M1740 659 c0 -5 5 -7 10 -4 6 3 10 8 10 11 0 2 -4 4 -10 4 -5 0 -10
-5 -10 -11z"/>
<path d="M1873 610 c-28 -11 -29 -15 -4 -17 11 -1 22 5 25 13 3 8 4 14 3 13
-1 0 -12 -4 -24 -9z"/>
<path d="M1753 545 c0 -8 4 -12 9 -9 4 3 8 9 8 15 0 5 -4 9 -8 9 -5 0 -9 -7
-9 -15z"/>
<path d="M1580 539 c0 -5 5 -7 10 -4 6 3 10 8 10 11 0 2 -4 4 -10 4 -5 0 -10
-5 -10 -11z"/>
<path d="M106 513 c-3 -4 -28 -7 -54 -8 l-47 0 -3 -44 c-2 -27 1 -41 7 -37 5
4 8 15 6 26 -6 30 8 31 48 4 l37 -24 6 25 c3 14 10 25 16 25 5 0 6 -4 3 -10
-9 -14 18 -13 32 1 9 9 8 16 -4 28 -12 12 -17 13 -21 3 -2 -6 -8 -12 -14 -12
-6 0 -8 7 -4 15 6 16 3 19 -8 8z"/>
<path d="M118 437 c8 -9 11 -21 7 -27 -3 -5 -2 -10 3 -10 21 0 20 30 -1 41
-20 11 -21 11 -9 -4z"/>
<path d="M261 393 c0 -4 4 -17 9 -28 8 -19 9 -19 9 2 1 12 -3 25 -9 28 -5 3
-10 3 -9 -2z"/>
<path d="M231 356 c-11 -13 -11 -16 2 -16 8 0 18 -7 21 -16 4 -9 9 -14 12 -11
3 3 -1 17 -8 32 -13 23 -16 25 -27 11z"/>
<path d="M50 350 c0 -5 5 -10 10 -10 6 0 10 5 10 10 0 6 -4 10 -10 10 -5 0
-10 -4 -10 -10z"/>
<path d="M65 319 c-4 -6 -14 -8 -22 -4 -13 4 -14 3 -3 -10 7 -8 16 -12 21 -9
5 3 9 0 9 -5 0 -6 5 -11 11 -11 8 0 8 4 -1 15 -6 8 -9 19 -5 25 3 5 4 10 1 10
-3 0 -8 -5 -11 -11z"/>
<path d="M125 270 c-3 -5 -1 -10 4 -10 6 0 11 5 11 10 0 6 -2 10 -4 10 -3 0
-8 -4 -11 -10z"/>
<path d="M1192 238 c-7 -7 -12 -18 -12 -26 0 -7 -4 -11 -9 -7 -6 3 -9 -4 -8
-15 1 -11 4 -20 8 -20 10 0 39 36 39 48 0 7 7 12 15 12 8 0 15 5 15 10 0 14
-33 13 -48 -2z"/>
<path d="M1135 200 c-3 -5 -1 -10 4 -10 6 0 11 5 11 10 0 6 -2 10 -4 10 -3 0
-8 -4 -11 -10z"/>
<path d="M1994 189 c-4 -7 -3 -9 4 -5 5 3 13 0 15 -6 4 -9 6 -10 6 -1 1 17
-16 25 -25 12z"/>
<path d="M2535 140 c-11 -17 5 -31 19 -17 14 12 12 27 -4 27 -5 0 -12 -4 -15
-10z"/>
<path d="M1200 106 c0 -8 -7 -22 -16 -31 -13 -13 -14 -19 -5 -28 7 -7 11 -7
10 -2 -4 20 14 45 32 45 15 0 19 -7 19 -36 0 -31 2 -34 15 -20 8 8 15 26 15
41 0 17 4 24 11 19 7 -4 10 -1 7 7 -6 19 -88 23 -88 5z"/>
<path d="M2576 99 c12 -13 20 -16 22 -9 3 7 -2 16 -9 21 -25 16 -32 9 -13 -12z"/>
<path d="M2020 86 c0 -2 8 -10 18 -17 15 -13 16 -12 3 4 -13 16 -21 21 -21 13z"/>
<path d="M1966 65 c-11 -8 -15 -15 -9 -15 6 0 16 7 23 15 16 19 11 19 -14 0z"/>
<path d="M262 58 c-15 -15 -15 -25 1 -25 6 0 21 -4 31 -9 14 -5 17 -4 12 4 -4
7 -14 12 -23 12 -9 0 -13 6 -9 15 7 18 4 19 -12 3z"/>
<path d="M225 41 c-3 -6 -12 -8 -18 -5 -8 5 -8 3 1 -7 9 -10 15 -10 24 -1 6 6
9 14 6 17 -3 4 -9 1 -13 -4z"/>
<path d="M1033 38 c-13 -6 -23 -15 -23 -20 0 -5 14 -2 30 7 45 23 38 35 -7 13z"/>
<path d="M3 18 c-2 -16 0 -19 6 -9 5 8 14 10 21 6 8 -5 11 -3 8 6 -8 24 -34
22 -35 -3z"/>
<path d="M1145 30 c-3 -5 -2 -10 4 -10 5 0 13 5 16 10 3 6 2 10 -4 10 -5 0
-13 -4 -16 -10z"/>
<path d="M267 9 c7 -7 15 -10 18 -7 3 3 -2 9 -12 12 -14 6 -15 5 -6 -5z"/>
<path d="M1950 10 c-13 -8 -12 -10 3 -10 9 0 17 5 17 10 0 12 -1 12 -20 0z"/>
</g>
</svg>
